G04 EAGLE Gerber RS-274X export*
G75*
%MOMM*%
%FSLAX34Y34*%
%LPD*%
%INTop Copper*%
%IPPOS*%
%AMOC8*
5,1,8,0,0,1.08239X$1,22.5*%
G01*
%ADD10C,0.300000*%
%ADD11R,1.400000X1.400000*%
%ADD12R,1.650000X2.300000*%
%ADD13C,0.363000*%
%ADD14R,1.200000X1.300000*%
%ADD15R,1.600000X1.800000*%
%ADD16C,5.800000*%
%ADD17C,1.108000*%
%ADD18C,2.000000*%
%ADD19C,0.381000*%
%ADD20C,1.016000*%
%ADD21C,0.756400*%
%ADD22C,0.508000*%

G36*
X19727Y2548D02*
X19727Y2548D01*
X19769Y2546D01*
X19836Y2568D01*
X19906Y2580D01*
X19942Y2602D01*
X19983Y2615D01*
X20056Y2669D01*
X20099Y2695D01*
X20112Y2711D01*
X20133Y2727D01*
X23308Y5902D01*
X23333Y5936D01*
X23364Y5965D01*
X23387Y6010D01*
X23412Y6040D01*
X23418Y6059D01*
X23437Y6086D01*
X23447Y6127D01*
X23467Y6165D01*
X23477Y6232D01*
X23484Y6253D01*
X23483Y6266D01*
X23493Y6303D01*
X23490Y6324D01*
X23494Y6350D01*
X23494Y20365D01*
X39818Y36690D01*
X39843Y36724D01*
X39874Y36753D01*
X39906Y36816D01*
X39947Y36874D01*
X39957Y36915D01*
X39977Y36953D01*
X39990Y37042D01*
X40003Y37091D01*
X40000Y37112D01*
X40004Y37138D01*
X40004Y77162D01*
X39997Y77204D01*
X39999Y77246D01*
X39977Y77313D01*
X39965Y77383D01*
X39943Y77419D01*
X39930Y77460D01*
X39876Y77532D01*
X39850Y77576D01*
X39834Y77589D01*
X39818Y77610D01*
X38240Y79188D01*
X36970Y80458D01*
X36935Y80483D01*
X36907Y80514D01*
X36844Y80546D01*
X36786Y80587D01*
X36745Y80597D01*
X36707Y80617D01*
X36618Y80630D01*
X36569Y80643D01*
X36548Y80640D01*
X36522Y80644D01*
X26670Y80644D01*
X26628Y80637D01*
X26586Y80639D01*
X26519Y80617D01*
X26449Y80605D01*
X26413Y80583D01*
X26372Y80570D01*
X26299Y80516D01*
X26256Y80490D01*
X26243Y80474D01*
X26222Y80458D01*
X23697Y77933D01*
X23672Y77899D01*
X23641Y77870D01*
X23609Y77807D01*
X23568Y77749D01*
X23558Y77708D01*
X23538Y77670D01*
X23525Y77581D01*
X23512Y77532D01*
X23515Y77511D01*
X23511Y77485D01*
X23511Y66828D01*
X22022Y65339D01*
X5865Y65339D01*
X5854Y65347D01*
X5813Y65357D01*
X5775Y65377D01*
X5686Y65390D01*
X5637Y65403D01*
X5616Y65400D01*
X5590Y65404D01*
X1533Y65404D01*
X-822Y67758D01*
X-856Y67783D01*
X-885Y67814D01*
X-948Y67846D01*
X-1006Y67887D01*
X-1047Y67897D01*
X-1085Y67917D01*
X-1174Y67930D01*
X-1223Y67943D01*
X-1244Y67940D01*
X-1270Y67944D01*
X-16510Y67944D01*
X-16552Y67937D01*
X-16594Y67939D01*
X-16661Y67917D01*
X-16731Y67905D01*
X-16767Y67883D01*
X-16808Y67870D01*
X-16881Y67816D01*
X-16924Y67790D01*
X-16937Y67774D01*
X-16959Y67758D01*
X-18991Y65726D01*
X-19015Y65692D01*
X-19046Y65663D01*
X-19078Y65600D01*
X-19119Y65542D01*
X-19129Y65501D01*
X-19149Y65463D01*
X-19162Y65374D01*
X-19175Y65325D01*
X-19172Y65304D01*
X-19176Y65278D01*
X-19176Y55073D01*
X-22815Y51434D01*
X-25092Y51434D01*
X-25134Y51427D01*
X-25176Y51429D01*
X-25243Y51407D01*
X-25313Y51395D01*
X-25349Y51373D01*
X-25390Y51360D01*
X-25462Y51306D01*
X-25506Y51280D01*
X-25519Y51264D01*
X-25540Y51248D01*
X-27118Y49670D01*
X-27143Y49636D01*
X-27174Y49607D01*
X-27206Y49544D01*
X-27247Y49486D01*
X-27257Y49445D01*
X-27277Y49407D01*
X-27290Y49318D01*
X-27303Y49269D01*
X-27300Y49248D01*
X-27304Y49222D01*
X-27304Y24438D01*
X-27297Y24396D01*
X-27299Y24354D01*
X-27277Y24287D01*
X-27265Y24217D01*
X-27243Y24181D01*
X-27230Y24140D01*
X-27176Y24068D01*
X-27150Y24024D01*
X-27134Y24011D01*
X-27118Y23990D01*
X-23494Y20365D01*
X-23494Y6350D01*
X-23487Y6308D01*
X-23489Y6266D01*
X-23477Y6231D01*
X-23477Y6216D01*
X-23465Y6186D01*
X-23455Y6129D01*
X-23433Y6093D01*
X-23420Y6052D01*
X-23399Y6024D01*
X-23393Y6008D01*
X-23365Y5978D01*
X-23340Y5936D01*
X-23324Y5923D01*
X-23308Y5902D01*
X-20133Y2727D01*
X-20099Y2702D01*
X-20070Y2671D01*
X-20007Y2639D01*
X-19949Y2598D01*
X-19908Y2588D01*
X-19870Y2568D01*
X-19781Y2555D01*
X-19732Y2542D01*
X-19711Y2545D01*
X-19685Y2541D01*
X19685Y2541D01*
X19727Y2548D01*
G37*
G36*
X43177Y2548D02*
X43177Y2548D01*
X43219Y2546D01*
X43286Y2568D01*
X43356Y2580D01*
X43392Y2602D01*
X43433Y2615D01*
X43505Y2669D01*
X43549Y2695D01*
X43562Y2711D01*
X43583Y2727D01*
X60138Y19282D01*
X60163Y19316D01*
X60194Y19345D01*
X60226Y19408D01*
X60267Y19466D01*
X60277Y19507D01*
X60297Y19545D01*
X60310Y19634D01*
X60323Y19683D01*
X60320Y19704D01*
X60324Y19730D01*
X60324Y144780D01*
X60313Y144845D01*
X60311Y144911D01*
X60293Y144954D01*
X60285Y145001D01*
X60251Y145058D01*
X60226Y145118D01*
X60195Y145153D01*
X60170Y145194D01*
X60119Y145236D01*
X60075Y145284D01*
X60033Y145306D01*
X59996Y145335D01*
X59934Y145356D01*
X59875Y145387D01*
X59821Y145395D01*
X59784Y145407D01*
X59744Y145406D01*
X59690Y145414D01*
X39370Y145414D01*
X39305Y145403D01*
X39239Y145401D01*
X39196Y145383D01*
X39149Y145375D01*
X39092Y145341D01*
X39032Y145316D01*
X38997Y145285D01*
X38956Y145260D01*
X38915Y145209D01*
X38866Y145165D01*
X38844Y145123D01*
X38815Y145086D01*
X38794Y145024D01*
X38763Y144965D01*
X38755Y144911D01*
X38743Y144874D01*
X38744Y144834D01*
X38736Y144780D01*
X38736Y82550D01*
X38743Y82508D01*
X38741Y82466D01*
X38763Y82399D01*
X38775Y82329D01*
X38797Y82293D01*
X38810Y82252D01*
X38864Y82179D01*
X38890Y82136D01*
X38906Y82123D01*
X38922Y82102D01*
X42546Y78477D01*
X42546Y35823D01*
X26222Y19498D01*
X26197Y19464D01*
X26166Y19435D01*
X26134Y19372D01*
X26093Y19314D01*
X26083Y19273D01*
X26063Y19235D01*
X26050Y19147D01*
X26043Y19125D01*
X26043Y19118D01*
X26038Y19097D01*
X26040Y19076D01*
X26036Y19050D01*
X26036Y7620D01*
X26043Y7578D01*
X26041Y7536D01*
X26054Y7496D01*
X26055Y7484D01*
X26065Y7460D01*
X26075Y7399D01*
X26097Y7363D01*
X26110Y7322D01*
X26133Y7291D01*
X26139Y7276D01*
X26165Y7248D01*
X26190Y7206D01*
X26206Y7193D01*
X26222Y7172D01*
X30667Y2727D01*
X30701Y2702D01*
X30730Y2671D01*
X30793Y2639D01*
X30851Y2598D01*
X30892Y2588D01*
X30930Y2568D01*
X31019Y2555D01*
X31068Y2542D01*
X31089Y2545D01*
X31115Y2541D01*
X43135Y2541D01*
X43177Y2548D01*
G37*
G36*
X-31073Y2548D02*
X-31073Y2548D01*
X-31031Y2546D01*
X-30964Y2568D01*
X-30894Y2580D01*
X-30858Y2602D01*
X-30817Y2615D01*
X-30744Y2669D01*
X-30701Y2695D01*
X-30688Y2711D01*
X-30667Y2727D01*
X-26222Y7172D01*
X-26197Y7206D01*
X-26166Y7235D01*
X-26143Y7280D01*
X-26120Y7308D01*
X-26114Y7327D01*
X-26093Y7356D01*
X-26083Y7397D01*
X-26063Y7435D01*
X-26053Y7507D01*
X-26048Y7521D01*
X-26048Y7531D01*
X-26038Y7573D01*
X-26040Y7594D01*
X-26036Y7620D01*
X-26036Y19050D01*
X-26043Y19092D01*
X-26041Y19134D01*
X-26049Y19159D01*
X-26049Y19162D01*
X-26054Y19172D01*
X-26063Y19201D01*
X-26075Y19271D01*
X-26097Y19307D01*
X-26110Y19348D01*
X-26164Y19421D01*
X-26190Y19464D01*
X-26206Y19477D01*
X-26222Y19498D01*
X-29846Y23123D01*
X-29846Y50537D01*
X-26407Y53976D01*
X-24130Y53976D01*
X-24088Y53983D01*
X-24046Y53981D01*
X-23979Y54003D01*
X-23909Y54015D01*
X-23873Y54037D01*
X-23832Y54050D01*
X-23759Y54104D01*
X-23716Y54130D01*
X-23703Y54146D01*
X-23682Y54162D01*
X-21904Y55940D01*
X-21879Y55974D01*
X-21848Y56003D01*
X-21816Y56066D01*
X-21775Y56124D01*
X-21765Y56165D01*
X-21745Y56203D01*
X-21732Y56292D01*
X-21720Y56341D01*
X-21722Y56362D01*
X-21718Y56388D01*
X-21718Y83820D01*
X-21725Y83862D01*
X-21723Y83904D01*
X-21745Y83971D01*
X-21757Y84041D01*
X-21779Y84077D01*
X-21792Y84118D01*
X-21846Y84191D01*
X-21872Y84234D01*
X-21888Y84247D01*
X-21904Y84268D01*
X-22412Y84776D01*
X-22446Y84801D01*
X-22475Y84832D01*
X-22538Y84864D01*
X-22596Y84905D01*
X-22637Y84915D01*
X-22675Y84935D01*
X-22764Y84948D01*
X-22813Y84961D01*
X-22834Y84958D01*
X-22860Y84962D01*
X-27940Y84962D01*
X-27982Y84955D01*
X-28024Y84957D01*
X-28091Y84935D01*
X-28161Y84923D01*
X-28197Y84901D01*
X-28238Y84888D01*
X-28311Y84834D01*
X-28354Y84808D01*
X-28367Y84792D01*
X-28389Y84776D01*
X-29424Y83741D01*
X-29448Y83707D01*
X-29479Y83678D01*
X-29511Y83615D01*
X-29552Y83557D01*
X-29562Y83516D01*
X-29582Y83478D01*
X-29595Y83389D01*
X-29608Y83340D01*
X-29605Y83319D01*
X-29609Y83293D01*
X-29609Y72450D01*
X-32166Y69893D01*
X-32233Y69871D01*
X-32303Y69859D01*
X-32339Y69837D01*
X-32380Y69824D01*
X-32453Y69770D01*
X-32496Y69744D01*
X-32509Y69728D01*
X-32530Y69713D01*
X-33029Y69214D01*
X-52832Y69214D01*
X-52874Y69207D01*
X-52916Y69209D01*
X-52983Y69187D01*
X-53053Y69175D01*
X-53089Y69153D01*
X-53130Y69140D01*
X-53203Y69086D01*
X-53246Y69060D01*
X-53259Y69044D01*
X-53280Y69028D01*
X-60138Y62170D01*
X-60163Y62136D01*
X-60194Y62107D01*
X-60226Y62044D01*
X-60267Y61986D01*
X-60277Y61945D01*
X-60297Y61907D01*
X-60310Y61818D01*
X-60323Y61769D01*
X-60320Y61748D01*
X-60324Y61722D01*
X-60324Y19730D01*
X-60317Y19688D01*
X-60319Y19646D01*
X-60297Y19579D01*
X-60285Y19509D01*
X-60263Y19473D01*
X-60250Y19432D01*
X-60196Y19360D01*
X-60170Y19316D01*
X-60154Y19303D01*
X-60138Y19282D01*
X-43583Y2727D01*
X-43549Y2702D01*
X-43520Y2671D01*
X-43457Y2639D01*
X-43399Y2598D01*
X-43358Y2588D01*
X-43320Y2568D01*
X-43231Y2555D01*
X-43182Y2542D01*
X-43161Y2545D01*
X-43135Y2541D01*
X-31115Y2541D01*
X-31073Y2548D01*
G37*
G36*
X20054Y67953D02*
X20054Y67953D01*
X20096Y67951D01*
X20163Y67973D01*
X20233Y67985D01*
X20269Y68007D01*
X20310Y68020D01*
X20382Y68074D01*
X20426Y68100D01*
X20439Y68116D01*
X20460Y68132D01*
X20768Y68440D01*
X20793Y68474D01*
X20824Y68503D01*
X20856Y68566D01*
X20897Y68624D01*
X20907Y68665D01*
X20927Y68703D01*
X20940Y68792D01*
X20953Y68841D01*
X20950Y68862D01*
X20954Y68888D01*
X20954Y78785D01*
X23000Y80831D01*
X24578Y82410D01*
X24603Y82445D01*
X24634Y82473D01*
X24666Y82536D01*
X24707Y82594D01*
X24717Y82635D01*
X24737Y82673D01*
X24750Y82762D01*
X24763Y82811D01*
X24760Y82832D01*
X24764Y82858D01*
X24764Y116840D01*
X24757Y116882D01*
X24759Y116924D01*
X24737Y116991D01*
X24725Y117061D01*
X24703Y117097D01*
X24690Y117138D01*
X24636Y117211D01*
X24610Y117254D01*
X24594Y117267D01*
X24578Y117288D01*
X22038Y119828D01*
X22004Y119853D01*
X21975Y119884D01*
X21912Y119916D01*
X21854Y119957D01*
X21813Y119967D01*
X21775Y119987D01*
X21686Y120000D01*
X21637Y120013D01*
X21616Y120010D01*
X21590Y120014D01*
X8382Y120014D01*
X8340Y120007D01*
X8298Y120009D01*
X8231Y119987D01*
X8161Y119975D01*
X8125Y119953D01*
X8084Y119940D01*
X8011Y119886D01*
X7968Y119860D01*
X7955Y119844D01*
X7934Y119828D01*
X5394Y117288D01*
X5369Y117254D01*
X5338Y117225D01*
X5306Y117162D01*
X5265Y117104D01*
X5255Y117063D01*
X5235Y117025D01*
X5222Y116936D01*
X5210Y116887D01*
X5212Y116866D01*
X5208Y116840D01*
X5208Y90687D01*
X5187Y90665D01*
X5162Y90631D01*
X5131Y90602D01*
X5115Y90570D01*
X2555Y88010D01*
X-16764Y88010D01*
X-16806Y88003D01*
X-16848Y88005D01*
X-16915Y87983D01*
X-16985Y87971D01*
X-17021Y87949D01*
X-17062Y87936D01*
X-17135Y87882D01*
X-17178Y87856D01*
X-17191Y87840D01*
X-17212Y87824D01*
X-18990Y86046D01*
X-19015Y86012D01*
X-19046Y85983D01*
X-19078Y85920D01*
X-19119Y85862D01*
X-19129Y85821D01*
X-19149Y85783D01*
X-19162Y85694D01*
X-19175Y85645D01*
X-19172Y85624D01*
X-19176Y85598D01*
X-19176Y72898D01*
X-19169Y72856D01*
X-19171Y72814D01*
X-19149Y72747D01*
X-19137Y72677D01*
X-19115Y72641D01*
X-19102Y72600D01*
X-19048Y72527D01*
X-19022Y72484D01*
X-19006Y72471D01*
X-18990Y72450D01*
X-17212Y70672D01*
X-17178Y70647D01*
X-17149Y70616D01*
X-17086Y70584D01*
X-17028Y70543D01*
X-16987Y70533D01*
X-16949Y70513D01*
X-16860Y70500D01*
X-16811Y70487D01*
X-16790Y70490D01*
X-16764Y70486D01*
X45Y70486D01*
X2400Y68132D01*
X2434Y68107D01*
X2463Y68076D01*
X2526Y68044D01*
X2584Y68003D01*
X2625Y67993D01*
X2663Y67973D01*
X2752Y67960D01*
X2801Y67947D01*
X2822Y67950D01*
X2848Y67946D01*
X20012Y67946D01*
X20054Y67953D01*
G37*
G36*
X-24122Y97284D02*
X-24122Y97284D01*
X-24115Y97283D01*
X-24025Y97304D01*
X-23934Y97322D01*
X-23927Y97327D01*
X-23919Y97329D01*
X-23771Y97431D01*
X-21339Y99863D01*
X-21335Y99870D01*
X-21329Y99874D01*
X-21280Y99953D01*
X-21228Y100030D01*
X-21227Y100038D01*
X-21223Y100045D01*
X-21191Y100222D01*
X-21191Y110449D01*
X-21172Y110479D01*
X-21120Y110557D01*
X-21119Y110564D01*
X-21115Y110571D01*
X-21083Y110748D01*
X-21083Y115614D01*
X-16151Y120545D01*
X-16147Y120552D01*
X-16141Y120556D01*
X-16092Y120635D01*
X-16040Y120712D01*
X-16039Y120720D01*
X-16035Y120727D01*
X-16003Y120904D01*
X-16003Y128270D01*
X-16004Y128278D01*
X-16003Y128285D01*
X-16024Y128375D01*
X-16042Y128467D01*
X-16047Y128473D01*
X-16049Y128481D01*
X-16151Y128629D01*
X-17421Y129899D01*
X-17428Y129903D01*
X-17432Y129909D01*
X-17511Y129958D01*
X-17588Y130010D01*
X-17596Y130011D01*
X-17603Y130015D01*
X-17780Y130047D01*
X-26670Y130047D01*
X-26678Y130046D01*
X-26685Y130047D01*
X-26775Y130026D01*
X-26867Y130008D01*
X-26873Y130003D01*
X-26881Y130001D01*
X-27029Y129899D01*
X-29569Y127359D01*
X-29573Y127352D01*
X-29579Y127348D01*
X-29628Y127269D01*
X-29680Y127192D01*
X-29681Y127184D01*
X-29685Y127177D01*
X-29717Y127000D01*
X-29717Y110748D01*
X-29716Y110741D01*
X-29717Y110733D01*
X-29696Y110643D01*
X-29678Y110552D01*
X-29673Y110545D01*
X-29671Y110538D01*
X-29609Y110448D01*
X-29609Y100222D01*
X-29608Y100214D01*
X-29609Y100207D01*
X-29588Y100117D01*
X-29570Y100026D01*
X-29565Y100019D01*
X-29563Y100011D01*
X-29461Y99863D01*
X-27029Y97431D01*
X-27022Y97427D01*
X-27018Y97421D01*
X-26939Y97372D01*
X-26862Y97320D01*
X-26854Y97319D01*
X-26847Y97315D01*
X-26670Y97283D01*
X-24130Y97283D01*
X-24122Y97284D01*
G37*
D10*
X-23550Y57460D02*
X-31550Y57460D01*
X-31550Y64460D01*
X-23550Y64460D01*
X-23550Y57460D01*
X-23550Y60310D02*
X-31550Y60310D01*
X-31550Y63160D02*
X-23550Y63160D01*
X-14550Y57460D02*
X-6550Y57460D01*
X-14550Y57460D02*
X-14550Y64460D01*
X-6550Y64460D01*
X-6550Y57460D01*
X-6550Y60310D02*
X-14550Y60310D01*
X-14550Y63160D02*
X-6550Y63160D01*
X-6040Y92130D02*
X-6040Y100130D01*
X960Y100130D01*
X960Y92130D01*
X-6040Y92130D01*
X-6040Y94980D02*
X960Y94980D01*
X960Y97830D02*
X-6040Y97830D01*
X-6040Y83130D02*
X-6040Y75130D01*
X-6040Y83130D02*
X960Y83130D01*
X960Y75130D01*
X-6040Y75130D01*
X-6040Y77980D02*
X960Y77980D01*
X960Y80830D02*
X-6040Y80830D01*
X19250Y148900D02*
X27250Y148900D01*
X19250Y148900D02*
X19250Y155900D01*
X27250Y155900D01*
X27250Y148900D01*
X27250Y151750D02*
X19250Y151750D01*
X19250Y154600D02*
X27250Y154600D01*
X36250Y148900D02*
X44250Y148900D01*
X36250Y148900D02*
X36250Y155900D01*
X44250Y155900D01*
X44250Y148900D01*
X44250Y151750D02*
X36250Y151750D01*
X36250Y154600D02*
X44250Y154600D01*
D11*
X12750Y137160D03*
X50750Y137160D03*
D12*
X15250Y105410D03*
X48250Y105410D03*
D10*
X-51760Y82350D02*
X-51760Y74350D01*
X-51760Y82350D02*
X-44760Y82350D01*
X-44760Y74350D01*
X-51760Y74350D01*
X-51760Y77200D02*
X-44760Y77200D01*
X-44760Y80050D02*
X-51760Y80050D01*
X-51760Y65350D02*
X-51760Y57350D01*
X-51760Y65350D02*
X-44760Y65350D01*
X-44760Y57350D01*
X-51760Y57350D01*
X-51760Y60200D02*
X-44760Y60200D01*
X-44760Y63050D02*
X-51760Y63050D01*
X960Y106880D02*
X960Y114880D01*
X960Y106880D02*
X-6040Y106880D01*
X-6040Y114880D01*
X960Y114880D01*
X960Y109730D02*
X-6040Y109730D01*
X-6040Y112580D02*
X960Y112580D01*
X960Y123880D02*
X960Y131880D01*
X960Y123880D02*
X-6040Y123880D01*
X-6040Y131880D01*
X960Y131880D01*
X960Y126730D02*
X-6040Y126730D01*
X-6040Y129580D02*
X960Y129580D01*
X-17980Y127960D02*
X-25980Y127960D01*
X-17980Y127960D02*
X-17980Y120960D01*
X-25980Y120960D01*
X-25980Y127960D01*
X-25980Y123810D02*
X-17980Y123810D01*
X-17980Y126660D02*
X-25980Y126660D01*
X-34980Y127960D02*
X-42980Y127960D01*
X-34980Y127960D02*
X-34980Y120960D01*
X-42980Y120960D01*
X-42980Y127960D01*
X-42980Y123810D02*
X-34980Y123810D01*
X-34980Y126660D02*
X-42980Y126660D01*
X-25980Y155900D02*
X-17980Y155900D01*
X-17980Y148900D01*
X-25980Y148900D01*
X-25980Y155900D01*
X-25980Y151750D02*
X-17980Y151750D01*
X-17980Y154600D02*
X-25980Y154600D01*
X-34980Y155900D02*
X-42980Y155900D01*
X-34980Y155900D02*
X-34980Y148900D01*
X-42980Y148900D01*
X-42980Y155900D01*
X-42980Y151750D02*
X-34980Y151750D01*
X-34980Y154600D02*
X-42980Y154600D01*
X-25980Y141930D02*
X-17980Y141930D01*
X-17980Y134930D01*
X-25980Y134930D01*
X-25980Y141930D01*
X-25980Y137780D02*
X-17980Y137780D01*
X-17980Y140630D02*
X-25980Y140630D01*
X-34980Y141930D02*
X-42980Y141930D01*
X-34980Y141930D02*
X-34980Y134930D01*
X-42980Y134930D01*
X-42980Y141930D01*
X-42980Y137780D02*
X-34980Y137780D01*
X-34980Y140630D02*
X-42980Y140630D01*
X-51760Y114100D02*
X-51760Y106100D01*
X-51760Y114100D02*
X-44760Y114100D01*
X-44760Y106100D01*
X-51760Y106100D01*
X-51760Y108950D02*
X-44760Y108950D01*
X-44760Y111800D02*
X-51760Y111800D01*
X-51760Y97100D02*
X-51760Y89100D01*
X-51760Y97100D02*
X-44760Y97100D01*
X-44760Y89100D01*
X-51760Y89100D01*
X-51760Y91950D02*
X-44760Y91950D01*
X-44760Y94800D02*
X-51760Y94800D01*
D13*
X-35835Y74254D02*
X-33965Y74254D01*
X-35835Y74254D02*
X-35835Y82624D01*
X-33965Y82624D01*
X-33965Y74254D01*
X-33965Y77702D02*
X-35835Y77702D01*
X-35835Y81150D02*
X-33965Y81150D01*
X-26335Y74254D02*
X-24465Y74254D01*
X-26335Y74254D02*
X-26335Y82624D01*
X-24465Y82624D01*
X-24465Y74254D01*
X-24465Y77702D02*
X-26335Y77702D01*
X-26335Y81150D02*
X-24465Y81150D01*
X-16835Y74254D02*
X-14965Y74254D01*
X-16835Y74254D02*
X-16835Y82624D01*
X-14965Y82624D01*
X-14965Y74254D01*
X-14965Y77702D02*
X-16835Y77702D01*
X-16835Y81150D02*
X-14965Y81150D01*
X-14965Y100256D02*
X-16835Y100256D01*
X-16835Y108626D01*
X-14965Y108626D01*
X-14965Y100256D01*
X-14965Y103704D02*
X-16835Y103704D01*
X-16835Y107152D02*
X-14965Y107152D01*
X-33965Y100256D02*
X-35835Y100256D01*
X-35835Y108626D01*
X-33965Y108626D01*
X-33965Y100256D01*
X-33965Y103704D02*
X-35835Y103704D01*
X-35835Y107152D02*
X-33965Y107152D01*
X-26335Y108626D02*
X-24465Y108626D01*
X-24465Y100256D01*
X-26335Y100256D01*
X-26335Y108626D01*
X-26335Y103704D02*
X-24465Y103704D01*
X-24465Y107152D02*
X-26335Y107152D01*
D10*
X46410Y58110D02*
X54410Y58110D01*
X54410Y51110D01*
X46410Y51110D01*
X46410Y58110D01*
X46410Y53960D02*
X54410Y53960D01*
X54410Y56810D02*
X46410Y56810D01*
X37410Y58110D02*
X29410Y58110D01*
X37410Y58110D02*
X37410Y51110D01*
X29410Y51110D01*
X29410Y58110D01*
X29410Y53960D02*
X37410Y53960D01*
X37410Y56810D02*
X29410Y56810D01*
D11*
X13970Y74880D03*
X13970Y36880D03*
D14*
X50800Y71120D03*
X30480Y71120D03*
D15*
X-43210Y39370D03*
X-15210Y39370D03*
D16*
X0Y184150D03*
D17*
X0Y206150D03*
X0Y162150D03*
X-22000Y184150D03*
X22000Y184150D03*
X15500Y199650D03*
X15500Y168650D03*
X-15500Y199650D03*
X-15500Y168650D03*
D18*
X38100Y15970D02*
X38100Y11970D01*
X12700Y11970D02*
X12700Y15970D01*
X-12700Y15970D02*
X-12700Y11970D01*
X-38100Y11970D02*
X-38100Y15970D01*
D19*
X-15900Y104441D02*
X-15900Y113885D01*
X-2540Y127245D02*
X-2540Y127880D01*
X-2540Y127245D02*
X-15900Y113885D01*
D20*
X-2422Y127762D02*
X3352Y127762D01*
X-2422Y127762D02*
X-2540Y127880D01*
X3352Y127762D02*
X12750Y137160D01*
D19*
X-2540Y110880D02*
X-2540Y96130D01*
X-50800Y112640D02*
X-50800Y131318D01*
X-50800Y112640D02*
X-48260Y110100D01*
D21*
X-50800Y131318D03*
D19*
X-26670Y119770D02*
X-21980Y124460D01*
X-26670Y119770D02*
X-26670Y116332D01*
X-25400Y115062D01*
X-25400Y104441D01*
X-25400Y91440D01*
D21*
X-25400Y91440D03*
X0Y49530D03*
X0Y43180D03*
X0Y36830D03*
X0Y30480D03*
X-25400Y115062D03*
X27940Y43180D03*
X27940Y36830D03*
X27940Y30480D03*
D19*
X-38710Y124190D02*
X-38980Y124460D01*
X-38710Y124190D02*
X-38710Y110791D01*
X-34900Y106981D01*
X-34900Y104441D01*
X-38980Y124460D02*
X-38980Y138430D01*
X-38980Y152400D01*
X20710Y149860D02*
X23250Y152400D01*
X20710Y149860D02*
X-19440Y149860D01*
X-21980Y152400D01*
X-21980Y138430D02*
X-10160Y138430D01*
X-7620Y140970D01*
D21*
X-7620Y140970D03*
D19*
X50750Y137160D02*
X50750Y149352D01*
X47702Y152400D01*
X40250Y152400D01*
D21*
X50292Y43180D03*
D19*
X50410Y43298D02*
X50410Y54610D01*
X50410Y43298D02*
X50292Y43180D01*
D22*
X-48171Y78439D02*
X-48260Y78350D01*
D19*
X-48171Y78439D02*
X-34900Y78439D01*
X-48260Y78350D02*
X-48260Y93100D01*
M02*
