M48
;GenerationSoftware,Autodesk,EAGLE,9.6.0*%
;CreationDate,2020-06-29T08:59:24Z*%
FMAT,2
ICI,OFF
METRIC,TZ,000.000
T3C0.350
T2C0.600
T1C3.100
%
G90
M71
T1
X0Y18415
T2
X0Y20615
X0Y16215
X-2200Y18415
X2200Y18415
X1550Y19965
X1550Y16865
X-1550Y19965
X-1550Y16865
T3
X-5080Y13132
X-2540Y9144
X0Y4953
X0Y4318
X0Y3683
X0Y3048
X-2540Y11506
X2794Y4318
X2794Y3683
X2794Y3048
X-762Y14097
X5029Y4318
M30