G04 EAGLE Gerber RS-274X export*
G75*
%MOMM*%
%FSLAX34Y34*%
%LPD*%
%INSilkscreen Bottom*%
%IPPOS*%
%AMOC8*
5,1,8,0,0,1.08239X$1,22.5*%
G01*
%ADD10C,0.228600*%
%ADD11C,0.177800*%
%ADD12C,0.203200*%
%ADD13C,0.152400*%
%ADD14C,0.254000*%

G36*
X48326Y156078D02*
X48326Y156078D01*
X48392Y156083D01*
X48410Y156094D01*
X48431Y156099D01*
X48516Y156159D01*
X48540Y156173D01*
X48543Y156178D01*
X48548Y156182D01*
X50748Y158482D01*
X50756Y158495D01*
X50769Y158505D01*
X50800Y158569D01*
X50836Y158631D01*
X50837Y158647D01*
X50844Y158661D01*
X50843Y158732D01*
X50849Y158803D01*
X50843Y158818D01*
X50842Y158834D01*
X50785Y158959D01*
X50783Y158963D01*
X50783Y158964D01*
X48915Y161579D01*
X48917Y161590D01*
X48926Y161603D01*
X48937Y161661D01*
X48946Y161682D01*
X48946Y161704D01*
X48952Y161737D01*
X48953Y161742D01*
X48953Y161743D01*
X48953Y161744D01*
X48953Y161754D01*
X48986Y161819D01*
X49042Y161876D01*
X49053Y161894D01*
X49065Y161903D01*
X49073Y161922D01*
X49113Y161974D01*
X49186Y162119D01*
X49242Y162176D01*
X49282Y162240D01*
X49326Y162303D01*
X49328Y162315D01*
X49333Y162323D01*
X49337Y162358D01*
X49353Y162444D01*
X49353Y162493D01*
X49382Y162540D01*
X49426Y162603D01*
X49428Y162615D01*
X49433Y162623D01*
X49437Y162658D01*
X49453Y162744D01*
X49453Y162854D01*
X49486Y162919D01*
X49542Y162976D01*
X49582Y163040D01*
X49626Y163103D01*
X49628Y163115D01*
X49633Y163123D01*
X49637Y163158D01*
X49643Y163191D01*
X49646Y163199D01*
X49646Y163207D01*
X49653Y163244D01*
X49653Y163293D01*
X49682Y163340D01*
X49726Y163403D01*
X49728Y163415D01*
X49733Y163423D01*
X49737Y163458D01*
X49753Y163544D01*
X49753Y163654D01*
X49782Y163712D01*
X53038Y164270D01*
X53056Y164277D01*
X53075Y164278D01*
X53135Y164311D01*
X53197Y164337D01*
X53210Y164352D01*
X53227Y164361D01*
X53266Y164417D01*
X53310Y164468D01*
X53315Y164487D01*
X53326Y164503D01*
X53348Y164614D01*
X53353Y164636D01*
X53352Y164640D01*
X53353Y164644D01*
X53353Y167844D01*
X53349Y167863D01*
X53351Y167882D01*
X53340Y167916D01*
X53339Y167923D01*
X53334Y167933D01*
X53329Y167946D01*
X53314Y168012D01*
X53301Y168027D01*
X53295Y168045D01*
X53247Y168093D01*
X53204Y168146D01*
X53186Y168153D01*
X53172Y168167D01*
X53066Y168207D01*
X53046Y168216D01*
X53042Y168216D01*
X53038Y168218D01*
X49826Y168768D01*
X49815Y168807D01*
X49814Y168812D01*
X49813Y168813D01*
X49753Y168933D01*
X49753Y168944D01*
X49750Y168959D01*
X49752Y168975D01*
X49732Y169045D01*
X49732Y169060D01*
X49724Y169074D01*
X49715Y169107D01*
X49714Y169112D01*
X49713Y169113D01*
X49653Y169233D01*
X49653Y169244D01*
X49650Y169259D01*
X49652Y169275D01*
X49615Y169407D01*
X49614Y169412D01*
X49613Y169413D01*
X49453Y169733D01*
X49453Y169744D01*
X49450Y169759D01*
X49452Y169775D01*
X49415Y169907D01*
X49414Y169912D01*
X49413Y169913D01*
X49313Y170113D01*
X49290Y170141D01*
X49253Y170195D01*
X49253Y170244D01*
X49236Y170318D01*
X49222Y170393D01*
X49216Y170403D01*
X49214Y170412D01*
X49191Y170440D01*
X49142Y170512D01*
X49086Y170568D01*
X49013Y170713D01*
X48990Y170741D01*
X48953Y170795D01*
X48953Y170844D01*
X48936Y170918D01*
X48932Y170940D01*
X50786Y173628D01*
X50792Y173644D01*
X50804Y173657D01*
X50824Y173724D01*
X50849Y173789D01*
X50848Y173807D01*
X50853Y173823D01*
X50840Y173892D01*
X50834Y173962D01*
X50825Y173976D01*
X50822Y173993D01*
X50751Y174099D01*
X50744Y174110D01*
X50743Y174110D01*
X50742Y174112D01*
X48542Y176312D01*
X48528Y176321D01*
X48517Y176335D01*
X48455Y176366D01*
X48395Y176403D01*
X48378Y176405D01*
X48363Y176412D01*
X48293Y176413D01*
X48223Y176419D01*
X48207Y176413D01*
X48190Y176413D01*
X48072Y176362D01*
X48061Y176358D01*
X48060Y176357D01*
X48059Y176356D01*
X45360Y174494D01*
X45342Y174512D01*
X45277Y174552D01*
X45215Y174596D01*
X45203Y174598D01*
X45195Y174603D01*
X45160Y174606D01*
X45074Y174623D01*
X45024Y174623D01*
X45012Y174631D01*
X44944Y174683D01*
X44799Y174755D01*
X44742Y174812D01*
X44677Y174852D01*
X44615Y174896D01*
X44603Y174898D01*
X44595Y174903D01*
X44560Y174906D01*
X44474Y174923D01*
X44424Y174923D01*
X44412Y174931D01*
X44344Y174983D01*
X44144Y175083D01*
X44128Y175087D01*
X44115Y175096D01*
X43981Y175122D01*
X43975Y175123D01*
X43974Y175123D01*
X43964Y175123D01*
X43844Y175183D01*
X43828Y175187D01*
X43815Y175196D01*
X43681Y175222D01*
X43675Y175223D01*
X43674Y175223D01*
X43624Y175223D01*
X43577Y175252D01*
X43515Y175296D01*
X43503Y175298D01*
X43495Y175303D01*
X43460Y175306D01*
X43374Y175323D01*
X43264Y175323D01*
X43206Y175352D01*
X42648Y178608D01*
X42640Y178626D01*
X42639Y178645D01*
X42607Y178704D01*
X42580Y178767D01*
X42566Y178780D01*
X42556Y178797D01*
X42501Y178836D01*
X42449Y178880D01*
X42430Y178885D01*
X42415Y178896D01*
X42304Y178917D01*
X42282Y178923D01*
X42278Y178922D01*
X42274Y178923D01*
X39074Y178923D01*
X39055Y178919D01*
X39036Y178921D01*
X38972Y178899D01*
X38906Y178883D01*
X38891Y178871D01*
X38872Y178865D01*
X38825Y178817D01*
X38772Y178773D01*
X38764Y178756D01*
X38751Y178742D01*
X38711Y178636D01*
X38702Y178615D01*
X38702Y178612D01*
X38700Y178608D01*
X38150Y175396D01*
X38111Y175385D01*
X38106Y175383D01*
X38105Y175383D01*
X38104Y175383D01*
X37984Y175323D01*
X37974Y175323D01*
X37958Y175319D01*
X37942Y175322D01*
X37811Y175285D01*
X37806Y175283D01*
X37805Y175283D01*
X37804Y175283D01*
X37684Y175223D01*
X37674Y175223D01*
X37658Y175219D01*
X37642Y175222D01*
X37511Y175185D01*
X37506Y175183D01*
X37505Y175183D01*
X37504Y175183D01*
X37384Y175123D01*
X37274Y175123D01*
X37200Y175106D01*
X37124Y175092D01*
X37115Y175086D01*
X37106Y175083D01*
X37078Y175061D01*
X37006Y175012D01*
X36949Y174955D01*
X36884Y174923D01*
X36874Y174923D01*
X36858Y174919D01*
X36842Y174922D01*
X36711Y174885D01*
X36706Y174883D01*
X36705Y174883D01*
X36704Y174883D01*
X36504Y174783D01*
X36477Y174760D01*
X36406Y174712D01*
X36349Y174655D01*
X36284Y174623D01*
X36274Y174623D01*
X36258Y174619D01*
X36242Y174622D01*
X36111Y174585D01*
X36106Y174583D01*
X36105Y174583D01*
X36104Y174583D01*
X35963Y174512D01*
X33289Y176356D01*
X33277Y176361D01*
X33268Y176370D01*
X33197Y176392D01*
X33128Y176419D01*
X33115Y176418D01*
X33103Y176422D01*
X33030Y176410D01*
X32956Y176404D01*
X32945Y176397D01*
X32932Y176395D01*
X32812Y176318D01*
X30512Y174118D01*
X30498Y174096D01*
X30478Y174080D01*
X30451Y174024D01*
X30417Y173973D01*
X30414Y173947D01*
X30403Y173924D01*
X30404Y173862D01*
X30397Y173801D01*
X30406Y173777D01*
X30406Y173751D01*
X30444Y173671D01*
X30455Y173638D01*
X30462Y173632D01*
X30467Y173621D01*
X32402Y170948D01*
X32362Y170868D01*
X32306Y170812D01*
X32266Y170747D01*
X32222Y170684D01*
X32220Y170673D01*
X32215Y170665D01*
X32211Y170630D01*
X32195Y170544D01*
X32195Y170494D01*
X32187Y170481D01*
X32135Y170413D01*
X32062Y170268D01*
X32006Y170212D01*
X31966Y170147D01*
X31922Y170084D01*
X31920Y170073D01*
X31915Y170065D01*
X31911Y170030D01*
X31895Y169944D01*
X31895Y169894D01*
X31866Y169847D01*
X31822Y169784D01*
X31820Y169773D01*
X31815Y169765D01*
X31811Y169730D01*
X31795Y169644D01*
X31795Y169533D01*
X31762Y169468D01*
X31706Y169412D01*
X31666Y169347D01*
X31622Y169284D01*
X31620Y169273D01*
X31615Y169265D01*
X31611Y169230D01*
X31595Y169144D01*
X31595Y169094D01*
X31566Y169047D01*
X31522Y168984D01*
X31520Y168973D01*
X31515Y168965D01*
X31511Y168930D01*
X31495Y168844D01*
X31495Y168765D01*
X28212Y168218D01*
X28193Y168210D01*
X28173Y168209D01*
X28114Y168177D01*
X28052Y168151D01*
X28039Y168136D01*
X28021Y168126D01*
X27983Y168071D01*
X27939Y168021D01*
X27933Y168001D01*
X27922Y167984D01*
X27906Y167903D01*
X27902Y167893D01*
X27902Y167882D01*
X27901Y167878D01*
X27895Y167853D01*
X27896Y167849D01*
X27895Y167844D01*
X27895Y164644D01*
X27899Y164625D01*
X27897Y164606D01*
X27919Y164541D01*
X27934Y164475D01*
X27947Y164460D01*
X27953Y164442D01*
X28001Y164394D01*
X28044Y164342D01*
X28062Y164334D01*
X28076Y164320D01*
X28182Y164280D01*
X28202Y164271D01*
X28206Y164271D01*
X28210Y164270D01*
X31498Y163706D01*
X31533Y163581D01*
X31534Y163575D01*
X31535Y163575D01*
X31535Y163574D01*
X31595Y163454D01*
X31595Y163444D01*
X31598Y163428D01*
X31596Y163412D01*
X31633Y163281D01*
X31634Y163275D01*
X31635Y163275D01*
X31635Y163274D01*
X31695Y163154D01*
X31695Y163144D01*
X31698Y163128D01*
X31696Y163112D01*
X31733Y162981D01*
X31734Y162975D01*
X31735Y162975D01*
X31735Y162974D01*
X31895Y162654D01*
X31895Y162644D01*
X31898Y162628D01*
X31896Y162612D01*
X31933Y162481D01*
X31934Y162475D01*
X31935Y162475D01*
X31935Y162474D01*
X32035Y162274D01*
X32058Y162246D01*
X32106Y162176D01*
X32162Y162119D01*
X32195Y162054D01*
X32195Y162044D01*
X32198Y162028D01*
X32196Y162012D01*
X32233Y161881D01*
X32234Y161875D01*
X32235Y161875D01*
X32235Y161874D01*
X32335Y161674D01*
X32358Y161646D01*
X32406Y161576D01*
X32416Y161565D01*
X30471Y158971D01*
X30461Y158949D01*
X30444Y158930D01*
X30426Y158870D01*
X30401Y158813D01*
X30402Y158788D01*
X30395Y158764D01*
X30406Y158703D01*
X30409Y158640D01*
X30421Y158618D01*
X30426Y158594D01*
X30477Y158519D01*
X30493Y158489D01*
X30500Y158484D01*
X30506Y158476D01*
X32806Y156176D01*
X32820Y156167D01*
X32831Y156153D01*
X32893Y156121D01*
X32953Y156084D01*
X32970Y156083D01*
X32985Y156075D01*
X33056Y156075D01*
X33125Y156068D01*
X33141Y156074D01*
X33158Y156074D01*
X33276Y156126D01*
X33287Y156130D01*
X33288Y156131D01*
X33289Y156131D01*
X35988Y157993D01*
X36006Y157976D01*
X36071Y157935D01*
X36133Y157891D01*
X36145Y157889D01*
X36153Y157884D01*
X36188Y157881D01*
X36203Y157878D01*
X36206Y157876D01*
X36271Y157835D01*
X36333Y157791D01*
X36345Y157789D01*
X36353Y157784D01*
X36388Y157781D01*
X36474Y157764D01*
X36524Y157764D01*
X36571Y157735D01*
X36633Y157691D01*
X36645Y157689D01*
X36653Y157684D01*
X36688Y157681D01*
X36703Y157678D01*
X36706Y157676D01*
X36771Y157635D01*
X36833Y157591D01*
X36845Y157589D01*
X36853Y157584D01*
X36888Y157581D01*
X36903Y157578D01*
X36906Y157576D01*
X36971Y157535D01*
X37033Y157491D01*
X37045Y157489D01*
X37053Y157484D01*
X37088Y157481D01*
X37117Y157475D01*
X37144Y157442D01*
X37163Y157434D01*
X37178Y157419D01*
X37241Y157399D01*
X37302Y157371D01*
X37323Y157372D01*
X37342Y157366D01*
X37408Y157376D01*
X37475Y157378D01*
X37493Y157388D01*
X37513Y157391D01*
X37568Y157429D01*
X37627Y157461D01*
X37639Y157478D01*
X37655Y157490D01*
X37712Y157582D01*
X37726Y157603D01*
X37727Y157608D01*
X37730Y157612D01*
X39730Y163012D01*
X39734Y163043D01*
X39746Y163071D01*
X39744Y163127D01*
X39751Y163184D01*
X39741Y163213D01*
X39740Y163244D01*
X39713Y163294D01*
X39694Y163347D01*
X39672Y163369D01*
X39657Y163396D01*
X39597Y163442D01*
X39570Y163468D01*
X39557Y163472D01*
X39544Y163483D01*
X38999Y163755D01*
X38842Y163912D01*
X38812Y163931D01*
X38744Y163983D01*
X38599Y164055D01*
X38286Y164368D01*
X38213Y164513D01*
X38190Y164541D01*
X38142Y164612D01*
X37986Y164768D01*
X37925Y164889D01*
X37834Y165164D01*
X37822Y165183D01*
X37813Y165213D01*
X37753Y165333D01*
X37753Y165444D01*
X37745Y165479D01*
X37734Y165564D01*
X37653Y165805D01*
X37653Y166582D01*
X37734Y166824D01*
X37737Y166860D01*
X37753Y166944D01*
X37753Y167129D01*
X37890Y167333D01*
X37903Y167368D01*
X37934Y167424D01*
X38018Y167676D01*
X38369Y168202D01*
X38716Y168549D01*
X39242Y168900D01*
X39494Y168984D01*
X39512Y168995D01*
X39526Y168998D01*
X39539Y169009D01*
X39584Y169028D01*
X39789Y169164D01*
X39974Y169164D01*
X40009Y169173D01*
X40094Y169184D01*
X40336Y169264D01*
X40927Y169264D01*
X41282Y169176D01*
X41318Y169175D01*
X41374Y169164D01*
X41559Y169164D01*
X41764Y169028D01*
X41799Y169015D01*
X41848Y168987D01*
X41850Y168986D01*
X41851Y168986D01*
X41854Y168984D01*
X42106Y168900D01*
X42333Y168749D01*
X42506Y168576D01*
X42532Y168559D01*
X42564Y168528D01*
X42833Y168349D01*
X42979Y168202D01*
X43330Y167676D01*
X43695Y166582D01*
X43695Y166105D01*
X43614Y165864D01*
X43611Y165828D01*
X43595Y165744D01*
X43595Y165533D01*
X43435Y165213D01*
X43429Y165191D01*
X43414Y165164D01*
X43323Y164889D01*
X43162Y164568D01*
X43006Y164412D01*
X42987Y164381D01*
X42935Y164313D01*
X42862Y164168D01*
X42749Y164055D01*
X42604Y163983D01*
X42577Y163960D01*
X42506Y163912D01*
X42349Y163755D01*
X42028Y163595D01*
X41754Y163503D01*
X41705Y163473D01*
X41652Y163451D01*
X41632Y163429D01*
X41607Y163413D01*
X41576Y163364D01*
X41539Y163321D01*
X41531Y163292D01*
X41515Y163266D01*
X41509Y163209D01*
X41495Y163153D01*
X41501Y163119D01*
X41498Y163094D01*
X41510Y163062D01*
X41518Y163012D01*
X43518Y157612D01*
X43544Y157574D01*
X43560Y157531D01*
X43591Y157503D01*
X43614Y157468D01*
X43654Y157445D01*
X43687Y157414D01*
X43727Y157402D01*
X43764Y157381D01*
X43809Y157378D01*
X43853Y157365D01*
X43894Y157372D01*
X43936Y157370D01*
X43979Y157387D01*
X44024Y157395D01*
X44065Y157423D01*
X44096Y157436D01*
X44113Y157456D01*
X44126Y157464D01*
X44174Y157464D01*
X44248Y157482D01*
X44324Y157495D01*
X44333Y157502D01*
X44342Y157504D01*
X44370Y157527D01*
X44442Y157576D01*
X44449Y157582D01*
X44524Y157595D01*
X44533Y157602D01*
X44542Y157604D01*
X44570Y157627D01*
X44642Y157676D01*
X44649Y157682D01*
X44724Y157695D01*
X44733Y157702D01*
X44742Y157704D01*
X44770Y157727D01*
X44842Y157776D01*
X44849Y157782D01*
X44924Y157795D01*
X44933Y157802D01*
X44942Y157804D01*
X44970Y157827D01*
X45042Y157876D01*
X45049Y157882D01*
X45124Y157895D01*
X45133Y157902D01*
X45142Y157904D01*
X45170Y157927D01*
X45242Y157976D01*
X45249Y157982D01*
X45324Y157995D01*
X45333Y158002D01*
X45342Y158004D01*
X45343Y158004D01*
X48059Y156131D01*
X48079Y156124D01*
X48095Y156110D01*
X48158Y156092D01*
X48220Y156068D01*
X48241Y156070D01*
X48262Y156065D01*
X48326Y156078D01*
G37*
D10*
X-12121Y9003D02*
X-12121Y10739D01*
X-17907Y10739D01*
X-17907Y7267D01*
X-17905Y7171D01*
X-17899Y7076D01*
X-17889Y6981D01*
X-17875Y6886D01*
X-17858Y6792D01*
X-17836Y6699D01*
X-17811Y6607D01*
X-17782Y6516D01*
X-17749Y6426D01*
X-17712Y6337D01*
X-17672Y6251D01*
X-17628Y6166D01*
X-17581Y6083D01*
X-17530Y6001D01*
X-17476Y5922D01*
X-17419Y5846D01*
X-17359Y5771D01*
X-17295Y5700D01*
X-17229Y5631D01*
X-17160Y5565D01*
X-17089Y5501D01*
X-17014Y5441D01*
X-16938Y5384D01*
X-16859Y5330D01*
X-16778Y5279D01*
X-16694Y5232D01*
X-16609Y5188D01*
X-16523Y5148D01*
X-16434Y5111D01*
X-16344Y5078D01*
X-16253Y5049D01*
X-16161Y5024D01*
X-16068Y5002D01*
X-15974Y4985D01*
X-15879Y4971D01*
X-15784Y4961D01*
X-15689Y4955D01*
X-15593Y4953D01*
X-9807Y4953D01*
X-9711Y4955D01*
X-9616Y4961D01*
X-9521Y4971D01*
X-9426Y4985D01*
X-9332Y5002D01*
X-9239Y5024D01*
X-9147Y5049D01*
X-9056Y5078D01*
X-8966Y5111D01*
X-8877Y5148D01*
X-8791Y5188D01*
X-8706Y5232D01*
X-8623Y5279D01*
X-8541Y5330D01*
X-8462Y5384D01*
X-8386Y5441D01*
X-8311Y5501D01*
X-8240Y5565D01*
X-8171Y5631D01*
X-8105Y5700D01*
X-8041Y5771D01*
X-7981Y5846D01*
X-7924Y5922D01*
X-7870Y6001D01*
X-7819Y6082D01*
X-7772Y6166D01*
X-7728Y6251D01*
X-7688Y6337D01*
X-7651Y6426D01*
X-7618Y6516D01*
X-7589Y6607D01*
X-7564Y6699D01*
X-7542Y6792D01*
X-7525Y6886D01*
X-7511Y6981D01*
X-7501Y7076D01*
X-7495Y7171D01*
X-7493Y7267D01*
X-7493Y10739D01*
X-7493Y17145D02*
X-17907Y17145D01*
X-17907Y22931D02*
X-7493Y17145D01*
X-7493Y22931D02*
X-17907Y22931D01*
X-17907Y29337D02*
X-7493Y29337D01*
X-7493Y32230D01*
X-7495Y32336D01*
X-7501Y32441D01*
X-7510Y32546D01*
X-7524Y32651D01*
X-7541Y32755D01*
X-7562Y32859D01*
X-7587Y32962D01*
X-7616Y33063D01*
X-7648Y33164D01*
X-7684Y33263D01*
X-7723Y33361D01*
X-7767Y33458D01*
X-7813Y33553D01*
X-7863Y33646D01*
X-7917Y33737D01*
X-7973Y33826D01*
X-8033Y33913D01*
X-8096Y33998D01*
X-8162Y34081D01*
X-8231Y34161D01*
X-8303Y34238D01*
X-8378Y34313D01*
X-8455Y34385D01*
X-8535Y34454D01*
X-8618Y34520D01*
X-8703Y34583D01*
X-8790Y34643D01*
X-8879Y34699D01*
X-8970Y34753D01*
X-9063Y34803D01*
X-9158Y34849D01*
X-9255Y34893D01*
X-9353Y34932D01*
X-9452Y34968D01*
X-9553Y35000D01*
X-9654Y35029D01*
X-9757Y35054D01*
X-9861Y35075D01*
X-9965Y35092D01*
X-10070Y35106D01*
X-10175Y35115D01*
X-10280Y35121D01*
X-10386Y35123D01*
X-10386Y35122D02*
X-15014Y35122D01*
X-15014Y35123D02*
X-15120Y35121D01*
X-15225Y35115D01*
X-15330Y35106D01*
X-15435Y35092D01*
X-15539Y35075D01*
X-15643Y35054D01*
X-15746Y35029D01*
X-15847Y35000D01*
X-15948Y34968D01*
X-16047Y34932D01*
X-16145Y34893D01*
X-16242Y34849D01*
X-16337Y34803D01*
X-16430Y34753D01*
X-16521Y34699D01*
X-16610Y34643D01*
X-16697Y34583D01*
X-16782Y34520D01*
X-16865Y34454D01*
X-16945Y34385D01*
X-17022Y34313D01*
X-17097Y34238D01*
X-17169Y34161D01*
X-17238Y34081D01*
X-17304Y33998D01*
X-17367Y33913D01*
X-17427Y33826D01*
X-17483Y33737D01*
X-17537Y33646D01*
X-17587Y33553D01*
X-17633Y33458D01*
X-17677Y33361D01*
X-17716Y33263D01*
X-17752Y33164D01*
X-17784Y33063D01*
X-17813Y32962D01*
X-17838Y32859D01*
X-17859Y32755D01*
X-17876Y32651D01*
X-17890Y32546D01*
X-17899Y32441D01*
X-17905Y32336D01*
X-17907Y32230D01*
X-17907Y29337D01*
X13279Y10739D02*
X13279Y9003D01*
X13279Y10739D02*
X7493Y10739D01*
X7493Y7267D01*
X7495Y7174D01*
X7501Y7081D01*
X7510Y6988D01*
X7523Y6896D01*
X7540Y6804D01*
X7560Y6713D01*
X7584Y6623D01*
X7612Y6534D01*
X7643Y6446D01*
X7678Y6360D01*
X7716Y6275D01*
X7758Y6192D01*
X7803Y6110D01*
X7851Y6030D01*
X7903Y5952D01*
X7957Y5877D01*
X8015Y5804D01*
X8075Y5733D01*
X8138Y5664D01*
X8204Y5598D01*
X8273Y5535D01*
X8344Y5475D01*
X8417Y5417D01*
X8492Y5363D01*
X8570Y5311D01*
X8650Y5263D01*
X8732Y5218D01*
X8815Y5176D01*
X8900Y5138D01*
X8986Y5103D01*
X9074Y5072D01*
X9163Y5044D01*
X9253Y5020D01*
X9344Y5000D01*
X9436Y4983D01*
X9528Y4970D01*
X9621Y4961D01*
X9714Y4955D01*
X9807Y4953D01*
X15593Y4953D01*
X15689Y4955D01*
X15784Y4961D01*
X15879Y4971D01*
X15974Y4985D01*
X16068Y5002D01*
X16161Y5024D01*
X16253Y5049D01*
X16344Y5078D01*
X16434Y5111D01*
X16523Y5148D01*
X16609Y5188D01*
X16694Y5232D01*
X16777Y5279D01*
X16859Y5330D01*
X16938Y5384D01*
X17014Y5441D01*
X17089Y5501D01*
X17160Y5565D01*
X17229Y5631D01*
X17295Y5700D01*
X17359Y5771D01*
X17419Y5846D01*
X17476Y5922D01*
X17530Y6001D01*
X17581Y6082D01*
X17628Y6166D01*
X17672Y6251D01*
X17712Y6337D01*
X17749Y6426D01*
X17782Y6516D01*
X17811Y6607D01*
X17836Y6699D01*
X17858Y6792D01*
X17875Y6886D01*
X17889Y6981D01*
X17899Y7076D01*
X17905Y7171D01*
X17907Y7267D01*
X17907Y10739D01*
X17907Y17145D02*
X7493Y17145D01*
X7493Y22931D02*
X17907Y17145D01*
X17907Y22931D02*
X7493Y22931D01*
X7493Y29337D02*
X17907Y29337D01*
X17907Y32230D01*
X17905Y32336D01*
X17899Y32441D01*
X17890Y32546D01*
X17876Y32651D01*
X17859Y32755D01*
X17838Y32859D01*
X17813Y32962D01*
X17784Y33063D01*
X17752Y33164D01*
X17716Y33263D01*
X17677Y33361D01*
X17633Y33458D01*
X17587Y33553D01*
X17537Y33646D01*
X17483Y33737D01*
X17427Y33826D01*
X17367Y33913D01*
X17304Y33998D01*
X17238Y34081D01*
X17169Y34161D01*
X17097Y34238D01*
X17022Y34313D01*
X16945Y34385D01*
X16865Y34454D01*
X16782Y34520D01*
X16697Y34583D01*
X16610Y34643D01*
X16521Y34699D01*
X16430Y34753D01*
X16337Y34803D01*
X16242Y34849D01*
X16145Y34893D01*
X16047Y34932D01*
X15948Y34968D01*
X15847Y35000D01*
X15746Y35029D01*
X15643Y35054D01*
X15539Y35075D01*
X15435Y35092D01*
X15330Y35106D01*
X15225Y35115D01*
X15120Y35121D01*
X15014Y35123D01*
X15014Y35122D02*
X10386Y35122D01*
X10386Y35123D02*
X10280Y35121D01*
X10175Y35115D01*
X10070Y35106D01*
X9965Y35092D01*
X9861Y35075D01*
X9757Y35054D01*
X9654Y35029D01*
X9553Y35000D01*
X9452Y34968D01*
X9353Y34932D01*
X9255Y34893D01*
X9158Y34849D01*
X9063Y34803D01*
X8970Y34753D01*
X8879Y34699D01*
X8790Y34643D01*
X8703Y34583D01*
X8618Y34520D01*
X8535Y34454D01*
X8455Y34385D01*
X8378Y34313D01*
X8303Y34238D01*
X8231Y34161D01*
X8162Y34081D01*
X8096Y33998D01*
X8033Y33913D01*
X7973Y33826D01*
X7917Y33737D01*
X7863Y33646D01*
X7813Y33553D01*
X7767Y33458D01*
X7723Y33361D01*
X7684Y33263D01*
X7648Y33164D01*
X7616Y33063D01*
X7587Y32962D01*
X7562Y32859D01*
X7541Y32755D01*
X7524Y32651D01*
X7510Y32546D01*
X7501Y32441D01*
X7495Y32336D01*
X7493Y32230D01*
X7493Y29337D01*
X32893Y8424D02*
X43307Y4953D01*
X43307Y11896D02*
X32893Y8424D01*
X35786Y16962D02*
X40414Y16962D01*
X40414Y16961D02*
X40521Y16963D01*
X40628Y16969D01*
X40734Y16979D01*
X40840Y16993D01*
X40946Y17010D01*
X41050Y17032D01*
X41154Y17057D01*
X41257Y17087D01*
X41359Y17120D01*
X41459Y17156D01*
X41558Y17197D01*
X41655Y17241D01*
X41751Y17289D01*
X41845Y17340D01*
X41937Y17394D01*
X42027Y17452D01*
X42114Y17514D01*
X42200Y17578D01*
X42283Y17645D01*
X42363Y17716D01*
X42441Y17790D01*
X42516Y17866D01*
X42588Y17945D01*
X42657Y18026D01*
X42723Y18111D01*
X42786Y18197D01*
X42845Y18286D01*
X42901Y18377D01*
X42954Y18470D01*
X43004Y18564D01*
X43050Y18661D01*
X43092Y18759D01*
X43130Y18859D01*
X43165Y18960D01*
X43197Y19062D01*
X43224Y19166D01*
X43247Y19270D01*
X43267Y19375D01*
X43283Y19481D01*
X43295Y19587D01*
X43303Y19694D01*
X43307Y19801D01*
X43307Y19907D01*
X43303Y20014D01*
X43295Y20121D01*
X43283Y20227D01*
X43267Y20333D01*
X43247Y20438D01*
X43224Y20542D01*
X43197Y20646D01*
X43165Y20748D01*
X43130Y20849D01*
X43092Y20949D01*
X43050Y21047D01*
X43004Y21144D01*
X42954Y21238D01*
X42901Y21331D01*
X42845Y21422D01*
X42786Y21511D01*
X42723Y21597D01*
X42657Y21682D01*
X42588Y21763D01*
X42516Y21842D01*
X42441Y21918D01*
X42363Y21992D01*
X42283Y22063D01*
X42200Y22130D01*
X42114Y22194D01*
X42027Y22256D01*
X41937Y22314D01*
X41845Y22368D01*
X41751Y22419D01*
X41655Y22467D01*
X41558Y22511D01*
X41459Y22552D01*
X41359Y22588D01*
X41257Y22621D01*
X41154Y22651D01*
X41050Y22676D01*
X40946Y22698D01*
X40840Y22715D01*
X40734Y22729D01*
X40628Y22739D01*
X40521Y22745D01*
X40414Y22747D01*
X35786Y22747D01*
X35679Y22745D01*
X35572Y22739D01*
X35466Y22729D01*
X35360Y22715D01*
X35254Y22698D01*
X35150Y22676D01*
X35046Y22651D01*
X34943Y22621D01*
X34841Y22588D01*
X34741Y22552D01*
X34642Y22511D01*
X34545Y22467D01*
X34449Y22419D01*
X34355Y22368D01*
X34263Y22314D01*
X34173Y22256D01*
X34086Y22194D01*
X34000Y22130D01*
X33917Y22063D01*
X33837Y21992D01*
X33759Y21918D01*
X33684Y21842D01*
X33612Y21763D01*
X33543Y21682D01*
X33477Y21597D01*
X33414Y21511D01*
X33355Y21422D01*
X33299Y21331D01*
X33246Y21238D01*
X33196Y21144D01*
X33150Y21047D01*
X33108Y20949D01*
X33070Y20849D01*
X33035Y20748D01*
X33003Y20646D01*
X32976Y20542D01*
X32953Y20438D01*
X32933Y20333D01*
X32917Y20227D01*
X32905Y20121D01*
X32897Y20014D01*
X32893Y19907D01*
X32893Y19801D01*
X32897Y19694D01*
X32905Y19587D01*
X32917Y19481D01*
X32933Y19375D01*
X32953Y19270D01*
X32976Y19166D01*
X33003Y19062D01*
X33035Y18960D01*
X33070Y18859D01*
X33108Y18759D01*
X33150Y18661D01*
X33196Y18564D01*
X33246Y18470D01*
X33299Y18377D01*
X33355Y18286D01*
X33414Y18197D01*
X33477Y18111D01*
X33543Y18026D01*
X33612Y17945D01*
X33684Y17866D01*
X33759Y17790D01*
X33837Y17716D01*
X33917Y17645D01*
X34000Y17578D01*
X34086Y17514D01*
X34173Y17452D01*
X34263Y17394D01*
X34355Y17340D01*
X34449Y17289D01*
X34545Y17241D01*
X34642Y17197D01*
X34741Y17156D01*
X34841Y17120D01*
X34943Y17087D01*
X35046Y17057D01*
X35150Y17032D01*
X35254Y17010D01*
X35360Y16993D01*
X35466Y16979D01*
X35572Y16969D01*
X35679Y16963D01*
X35786Y16961D01*
X35786Y28773D02*
X43307Y28773D01*
X35786Y28772D02*
X35679Y28774D01*
X35572Y28780D01*
X35466Y28790D01*
X35360Y28804D01*
X35254Y28821D01*
X35150Y28843D01*
X35046Y28868D01*
X34943Y28898D01*
X34841Y28931D01*
X34741Y28967D01*
X34642Y29008D01*
X34545Y29052D01*
X34449Y29100D01*
X34355Y29151D01*
X34263Y29205D01*
X34173Y29263D01*
X34086Y29325D01*
X34000Y29389D01*
X33917Y29456D01*
X33837Y29527D01*
X33759Y29601D01*
X33684Y29677D01*
X33612Y29756D01*
X33543Y29837D01*
X33477Y29922D01*
X33414Y30008D01*
X33355Y30097D01*
X33299Y30188D01*
X33246Y30281D01*
X33196Y30375D01*
X33150Y30472D01*
X33108Y30570D01*
X33070Y30670D01*
X33035Y30771D01*
X33003Y30873D01*
X32976Y30977D01*
X32953Y31081D01*
X32933Y31186D01*
X32917Y31292D01*
X32905Y31398D01*
X32897Y31505D01*
X32893Y31612D01*
X32893Y31718D01*
X32897Y31825D01*
X32905Y31932D01*
X32917Y32038D01*
X32933Y32144D01*
X32953Y32249D01*
X32976Y32353D01*
X33003Y32457D01*
X33035Y32559D01*
X33070Y32660D01*
X33108Y32760D01*
X33150Y32858D01*
X33196Y32955D01*
X33246Y33049D01*
X33299Y33142D01*
X33355Y33233D01*
X33414Y33322D01*
X33477Y33408D01*
X33543Y33493D01*
X33612Y33574D01*
X33684Y33653D01*
X33759Y33729D01*
X33837Y33803D01*
X33917Y33874D01*
X34000Y33941D01*
X34086Y34005D01*
X34173Y34067D01*
X34263Y34125D01*
X34355Y34179D01*
X34449Y34230D01*
X34545Y34278D01*
X34642Y34322D01*
X34741Y34363D01*
X34841Y34399D01*
X34943Y34432D01*
X35046Y34462D01*
X35150Y34487D01*
X35254Y34509D01*
X35360Y34526D01*
X35466Y34540D01*
X35572Y34550D01*
X35679Y34556D01*
X35786Y34558D01*
X43307Y34558D01*
X43307Y42714D02*
X32893Y42714D01*
X43307Y39821D02*
X43307Y45607D01*
X-32893Y4953D02*
X-43307Y8424D01*
X-32893Y11896D01*
X-32893Y17568D02*
X-43307Y17568D01*
X-43307Y16411D02*
X-43307Y18725D01*
X-32893Y18725D02*
X-32893Y16411D01*
X-32893Y24201D02*
X-43307Y24201D01*
X-43307Y29986D02*
X-32893Y24201D01*
X-32893Y29986D02*
X-43307Y29986D01*
D11*
X57531Y143129D02*
X57531Y151511D01*
X54737Y146854D01*
X51943Y151511D01*
X51943Y143129D01*
X46486Y143129D02*
X46486Y151511D01*
X44158Y151511D01*
X44063Y151509D01*
X43968Y151503D01*
X43874Y151494D01*
X43780Y151480D01*
X43686Y151463D01*
X43594Y151442D01*
X43502Y151417D01*
X43412Y151388D01*
X43322Y151356D01*
X43234Y151320D01*
X43148Y151280D01*
X43063Y151238D01*
X42980Y151191D01*
X42899Y151141D01*
X42821Y151088D01*
X42744Y151032D01*
X42670Y150973D01*
X42598Y150911D01*
X42529Y150846D01*
X42462Y150778D01*
X42399Y150708D01*
X42338Y150634D01*
X42280Y150559D01*
X42226Y150481D01*
X42174Y150401D01*
X42126Y150319D01*
X42082Y150236D01*
X42040Y150150D01*
X42003Y150063D01*
X41969Y149974D01*
X41938Y149884D01*
X41911Y149793D01*
X41888Y149701D01*
X41869Y149608D01*
X41854Y149514D01*
X41842Y149420D01*
X41834Y149325D01*
X41830Y149230D01*
X41830Y149136D01*
X41834Y149041D01*
X41842Y148946D01*
X41854Y148852D01*
X41869Y148758D01*
X41888Y148665D01*
X41911Y148573D01*
X41938Y148482D01*
X41969Y148392D01*
X42003Y148303D01*
X42040Y148216D01*
X42082Y148130D01*
X42126Y148047D01*
X42174Y147965D01*
X42226Y147885D01*
X42280Y147807D01*
X42338Y147732D01*
X42399Y147658D01*
X42462Y147588D01*
X42529Y147520D01*
X42598Y147455D01*
X42670Y147393D01*
X42744Y147334D01*
X42821Y147278D01*
X42899Y147225D01*
X42980Y147175D01*
X43063Y147128D01*
X43148Y147086D01*
X43234Y147046D01*
X43322Y147010D01*
X43412Y146978D01*
X43502Y146949D01*
X43594Y146924D01*
X43686Y146903D01*
X43780Y146886D01*
X43874Y146872D01*
X43968Y146863D01*
X44063Y146857D01*
X44158Y146855D01*
X44158Y146854D02*
X46486Y146854D01*
X35302Y151512D02*
X35213Y151510D01*
X35124Y151504D01*
X35036Y151495D01*
X34948Y151482D01*
X34860Y151465D01*
X34774Y151444D01*
X34688Y151420D01*
X34604Y151392D01*
X34520Y151361D01*
X34439Y151326D01*
X34358Y151288D01*
X34280Y151246D01*
X34203Y151201D01*
X34128Y151153D01*
X34056Y151101D01*
X33985Y151047D01*
X33917Y150989D01*
X33852Y150929D01*
X33789Y150866D01*
X33729Y150801D01*
X33671Y150733D01*
X33617Y150662D01*
X33565Y150590D01*
X33517Y150515D01*
X33472Y150438D01*
X33430Y150360D01*
X33392Y150279D01*
X33357Y150198D01*
X33326Y150114D01*
X33298Y150030D01*
X33274Y149944D01*
X33253Y149858D01*
X33236Y149770D01*
X33223Y149682D01*
X33214Y149594D01*
X33208Y149505D01*
X33206Y149416D01*
X35302Y151511D02*
X35405Y151509D01*
X35507Y151503D01*
X35609Y151493D01*
X35711Y151480D01*
X35812Y151462D01*
X35912Y151441D01*
X36012Y151416D01*
X36110Y151387D01*
X36207Y151354D01*
X36303Y151318D01*
X36398Y151278D01*
X36491Y151234D01*
X36582Y151187D01*
X36671Y151137D01*
X36758Y151083D01*
X36844Y151026D01*
X36927Y150966D01*
X37007Y150902D01*
X37085Y150836D01*
X37161Y150766D01*
X37234Y150694D01*
X37304Y150619D01*
X37371Y150541D01*
X37435Y150461D01*
X37496Y150379D01*
X37554Y150294D01*
X37608Y150207D01*
X37660Y150118D01*
X37707Y150028D01*
X37752Y149935D01*
X37792Y149841D01*
X37830Y149745D01*
X37863Y149648D01*
X33905Y147786D02*
X33840Y147850D01*
X33778Y147917D01*
X33718Y147986D01*
X33662Y148058D01*
X33609Y148131D01*
X33558Y148207D01*
X33511Y148285D01*
X33467Y148365D01*
X33426Y148446D01*
X33388Y148529D01*
X33354Y148614D01*
X33323Y148700D01*
X33296Y148787D01*
X33272Y148875D01*
X33252Y148963D01*
X33235Y149053D01*
X33223Y149143D01*
X33213Y149234D01*
X33208Y149325D01*
X33206Y149416D01*
X33905Y147786D02*
X37863Y143129D01*
X33206Y143129D01*
X28719Y144992D02*
X26856Y151511D01*
X28719Y144992D02*
X24062Y144992D01*
X25459Y146854D02*
X25459Y143129D01*
X19575Y143129D02*
X16781Y143129D01*
X16697Y143131D01*
X16614Y143136D01*
X16531Y143146D01*
X16448Y143159D01*
X16366Y143176D01*
X16285Y143196D01*
X16205Y143220D01*
X16126Y143248D01*
X16049Y143279D01*
X15973Y143313D01*
X15898Y143351D01*
X15825Y143393D01*
X15755Y143437D01*
X15686Y143485D01*
X15619Y143535D01*
X15555Y143589D01*
X15494Y143645D01*
X15434Y143705D01*
X15378Y143766D01*
X15324Y143830D01*
X15274Y143897D01*
X15226Y143966D01*
X15182Y144036D01*
X15140Y144109D01*
X15102Y144184D01*
X15068Y144260D01*
X15037Y144337D01*
X15009Y144416D01*
X14985Y144496D01*
X14965Y144577D01*
X14948Y144659D01*
X14935Y144742D01*
X14925Y144825D01*
X14920Y144908D01*
X14918Y144992D01*
X14918Y145923D01*
X14920Y146007D01*
X14926Y146090D01*
X14935Y146173D01*
X14948Y146256D01*
X14965Y146338D01*
X14985Y146419D01*
X15009Y146499D01*
X15037Y146578D01*
X15068Y146655D01*
X15102Y146731D01*
X15140Y146806D01*
X15182Y146879D01*
X15226Y146949D01*
X15274Y147018D01*
X15324Y147085D01*
X15378Y147149D01*
X15434Y147210D01*
X15494Y147270D01*
X15555Y147326D01*
X15619Y147380D01*
X15686Y147430D01*
X15755Y147478D01*
X15825Y147522D01*
X15898Y147564D01*
X15973Y147602D01*
X16049Y147636D01*
X16126Y147667D01*
X16205Y147695D01*
X16285Y147719D01*
X16366Y147739D01*
X16448Y147756D01*
X16531Y147769D01*
X16614Y147779D01*
X16697Y147784D01*
X16781Y147786D01*
X19575Y147786D01*
X19575Y151511D01*
X14918Y151511D01*
X10431Y147786D02*
X7637Y147786D01*
X7551Y147784D01*
X7465Y147778D01*
X7380Y147768D01*
X7295Y147754D01*
X7210Y147737D01*
X7127Y147715D01*
X7045Y147689D01*
X6964Y147660D01*
X6885Y147627D01*
X6807Y147591D01*
X6730Y147551D01*
X6656Y147507D01*
X6584Y147460D01*
X6514Y147410D01*
X6447Y147356D01*
X6382Y147300D01*
X6320Y147240D01*
X6260Y147178D01*
X6204Y147113D01*
X6150Y147046D01*
X6100Y146976D01*
X6053Y146904D01*
X6009Y146830D01*
X5969Y146753D01*
X5933Y146676D01*
X5900Y146596D01*
X5871Y146515D01*
X5845Y146433D01*
X5823Y146350D01*
X5806Y146265D01*
X5792Y146180D01*
X5782Y146095D01*
X5776Y146009D01*
X5774Y145923D01*
X5774Y145457D01*
X5775Y145457D02*
X5777Y145362D01*
X5783Y145267D01*
X5792Y145173D01*
X5806Y145079D01*
X5823Y144985D01*
X5844Y144893D01*
X5869Y144801D01*
X5898Y144711D01*
X5930Y144621D01*
X5966Y144533D01*
X6006Y144447D01*
X6048Y144362D01*
X6095Y144279D01*
X6145Y144198D01*
X6198Y144120D01*
X6254Y144043D01*
X6313Y143969D01*
X6375Y143897D01*
X6440Y143828D01*
X6508Y143761D01*
X6578Y143698D01*
X6652Y143637D01*
X6727Y143579D01*
X6805Y143525D01*
X6885Y143473D01*
X6967Y143425D01*
X7050Y143381D01*
X7136Y143339D01*
X7223Y143302D01*
X7312Y143268D01*
X7402Y143237D01*
X7493Y143210D01*
X7585Y143187D01*
X7678Y143168D01*
X7772Y143153D01*
X7866Y143141D01*
X7961Y143133D01*
X8056Y143129D01*
X8150Y143129D01*
X8245Y143133D01*
X8340Y143141D01*
X8434Y143153D01*
X8528Y143168D01*
X8621Y143187D01*
X8713Y143210D01*
X8804Y143237D01*
X8894Y143268D01*
X8983Y143302D01*
X9070Y143339D01*
X9156Y143381D01*
X9239Y143425D01*
X9321Y143473D01*
X9401Y143525D01*
X9479Y143579D01*
X9554Y143637D01*
X9628Y143698D01*
X9698Y143761D01*
X9766Y143828D01*
X9831Y143897D01*
X9893Y143969D01*
X9952Y144043D01*
X10008Y144120D01*
X10061Y144198D01*
X10111Y144279D01*
X10158Y144362D01*
X10200Y144447D01*
X10240Y144533D01*
X10276Y144621D01*
X10308Y144711D01*
X10337Y144801D01*
X10362Y144893D01*
X10383Y144985D01*
X10400Y145079D01*
X10414Y145173D01*
X10423Y145267D01*
X10429Y145362D01*
X10431Y145457D01*
X10431Y147786D01*
X10429Y147908D01*
X10423Y148030D01*
X10413Y148151D01*
X10399Y148272D01*
X10381Y148393D01*
X10359Y148513D01*
X10334Y148632D01*
X10304Y148750D01*
X10271Y148867D01*
X10233Y148983D01*
X10192Y149098D01*
X10147Y149211D01*
X10099Y149323D01*
X10047Y149434D01*
X9991Y149542D01*
X9932Y149648D01*
X9869Y149753D01*
X9803Y149855D01*
X9734Y149956D01*
X9661Y150054D01*
X9585Y150149D01*
X9507Y150242D01*
X9425Y150332D01*
X9340Y150420D01*
X9252Y150505D01*
X9162Y150587D01*
X9069Y150665D01*
X8974Y150741D01*
X8876Y150814D01*
X8776Y150883D01*
X8673Y150949D01*
X8569Y151012D01*
X8462Y151071D01*
X8354Y151127D01*
X8243Y151179D01*
X8132Y151227D01*
X8018Y151272D01*
X7903Y151313D01*
X7787Y151351D01*
X7670Y151384D01*
X7552Y151414D01*
X7433Y151439D01*
X7313Y151461D01*
X7192Y151479D01*
X7071Y151493D01*
X6950Y151503D01*
X6828Y151509D01*
X6706Y151511D01*
X-3734Y146389D02*
X-9322Y146389D01*
X-19163Y143129D02*
X-22888Y143129D01*
X-19163Y143129D02*
X-19163Y151511D01*
X-22888Y151511D01*
X-21957Y147786D02*
X-19163Y147786D01*
X-26289Y151511D02*
X-29083Y143129D01*
X-31877Y151511D01*
X-36347Y151511D02*
X-36347Y143129D01*
X-39141Y146854D02*
X-36347Y151511D01*
X-39141Y146854D02*
X-41935Y151511D01*
X-41935Y143129D01*
X54737Y127889D02*
X57531Y136271D01*
X51943Y136271D02*
X54737Y127889D01*
X47921Y130217D02*
X47921Y133943D01*
X47919Y134038D01*
X47913Y134133D01*
X47904Y134227D01*
X47890Y134321D01*
X47873Y134415D01*
X47852Y134507D01*
X47827Y134599D01*
X47798Y134689D01*
X47766Y134779D01*
X47730Y134867D01*
X47690Y134953D01*
X47648Y135038D01*
X47601Y135121D01*
X47551Y135202D01*
X47498Y135280D01*
X47442Y135357D01*
X47383Y135431D01*
X47321Y135503D01*
X47256Y135572D01*
X47188Y135639D01*
X47118Y135702D01*
X47044Y135763D01*
X46969Y135821D01*
X46891Y135875D01*
X46811Y135927D01*
X46729Y135975D01*
X46646Y136019D01*
X46560Y136061D01*
X46473Y136098D01*
X46384Y136132D01*
X46294Y136163D01*
X46203Y136190D01*
X46111Y136213D01*
X46018Y136232D01*
X45924Y136247D01*
X45830Y136259D01*
X45735Y136267D01*
X45640Y136271D01*
X45546Y136271D01*
X45451Y136267D01*
X45356Y136259D01*
X45262Y136247D01*
X45168Y136232D01*
X45075Y136213D01*
X44983Y136190D01*
X44892Y136163D01*
X44802Y136132D01*
X44713Y136098D01*
X44626Y136061D01*
X44540Y136019D01*
X44457Y135975D01*
X44375Y135927D01*
X44295Y135875D01*
X44217Y135821D01*
X44142Y135763D01*
X44068Y135702D01*
X43998Y135639D01*
X43930Y135572D01*
X43865Y135503D01*
X43803Y135431D01*
X43744Y135357D01*
X43688Y135280D01*
X43635Y135202D01*
X43585Y135121D01*
X43538Y135038D01*
X43496Y134953D01*
X43456Y134867D01*
X43420Y134779D01*
X43388Y134689D01*
X43359Y134599D01*
X43334Y134507D01*
X43313Y134415D01*
X43296Y134321D01*
X43282Y134227D01*
X43273Y134133D01*
X43267Y134038D01*
X43265Y133943D01*
X43265Y130217D01*
X43267Y130122D01*
X43273Y130027D01*
X43282Y129933D01*
X43296Y129839D01*
X43313Y129745D01*
X43334Y129653D01*
X43359Y129561D01*
X43388Y129471D01*
X43420Y129381D01*
X43456Y129293D01*
X43496Y129207D01*
X43538Y129122D01*
X43585Y129039D01*
X43635Y128958D01*
X43688Y128880D01*
X43744Y128803D01*
X43803Y128729D01*
X43865Y128657D01*
X43930Y128588D01*
X43998Y128521D01*
X44068Y128458D01*
X44142Y128397D01*
X44217Y128339D01*
X44295Y128285D01*
X44375Y128233D01*
X44457Y128185D01*
X44540Y128141D01*
X44626Y128099D01*
X44713Y128062D01*
X44802Y128028D01*
X44892Y127997D01*
X44983Y127970D01*
X45075Y127947D01*
X45168Y127928D01*
X45262Y127913D01*
X45356Y127901D01*
X45451Y127893D01*
X45546Y127889D01*
X45640Y127889D01*
X45735Y127893D01*
X45830Y127901D01*
X45924Y127913D01*
X46018Y127928D01*
X46111Y127947D01*
X46203Y127970D01*
X46294Y127997D01*
X46384Y128028D01*
X46473Y128062D01*
X46560Y128099D01*
X46646Y128141D01*
X46729Y128185D01*
X46811Y128233D01*
X46891Y128285D01*
X46969Y128339D01*
X47044Y128397D01*
X47118Y128458D01*
X47188Y128521D01*
X47256Y128588D01*
X47321Y128657D01*
X47383Y128729D01*
X47442Y128803D01*
X47498Y128880D01*
X47551Y128958D01*
X47601Y129039D01*
X47648Y129122D01*
X47690Y129207D01*
X47730Y129293D01*
X47766Y129381D01*
X47798Y129471D01*
X47827Y129561D01*
X47852Y129653D01*
X47873Y129745D01*
X47890Y129839D01*
X47904Y129933D01*
X47913Y130027D01*
X47919Y130122D01*
X47921Y130217D01*
X38473Y130217D02*
X38473Y136271D01*
X38472Y130217D02*
X38470Y130122D01*
X38464Y130027D01*
X38455Y129933D01*
X38441Y129839D01*
X38424Y129745D01*
X38403Y129653D01*
X38378Y129561D01*
X38349Y129471D01*
X38317Y129381D01*
X38281Y129293D01*
X38241Y129207D01*
X38199Y129122D01*
X38152Y129039D01*
X38102Y128958D01*
X38049Y128880D01*
X37993Y128803D01*
X37934Y128729D01*
X37872Y128657D01*
X37807Y128588D01*
X37739Y128521D01*
X37669Y128458D01*
X37595Y128397D01*
X37520Y128339D01*
X37442Y128285D01*
X37362Y128233D01*
X37280Y128185D01*
X37197Y128141D01*
X37111Y128099D01*
X37024Y128062D01*
X36935Y128028D01*
X36845Y127997D01*
X36754Y127970D01*
X36662Y127947D01*
X36569Y127928D01*
X36475Y127913D01*
X36381Y127901D01*
X36286Y127893D01*
X36191Y127889D01*
X36097Y127889D01*
X36002Y127893D01*
X35907Y127901D01*
X35813Y127913D01*
X35719Y127928D01*
X35626Y127947D01*
X35534Y127970D01*
X35443Y127997D01*
X35353Y128028D01*
X35264Y128062D01*
X35177Y128099D01*
X35091Y128141D01*
X35008Y128185D01*
X34926Y128233D01*
X34846Y128285D01*
X34768Y128339D01*
X34693Y128397D01*
X34619Y128458D01*
X34549Y128521D01*
X34481Y128588D01*
X34416Y128657D01*
X34354Y128729D01*
X34295Y128803D01*
X34239Y128880D01*
X34186Y128958D01*
X34136Y129039D01*
X34089Y129122D01*
X34047Y129207D01*
X34007Y129293D01*
X33971Y129381D01*
X33939Y129471D01*
X33910Y129561D01*
X33885Y129653D01*
X33864Y129745D01*
X33847Y129839D01*
X33833Y129933D01*
X33824Y130027D01*
X33818Y130122D01*
X33816Y130217D01*
X33816Y136271D01*
X27305Y136271D02*
X27305Y127889D01*
X29633Y136271D02*
X24977Y136271D01*
X21442Y129053D02*
X21442Y128588D01*
X21442Y129053D02*
X20976Y129053D01*
X20976Y128588D01*
X21442Y128588D01*
X21442Y132313D02*
X21442Y132779D01*
X20976Y132779D01*
X20976Y132313D01*
X21442Y132313D01*
X11955Y127889D02*
X9161Y127889D01*
X9077Y127891D01*
X8994Y127896D01*
X8911Y127906D01*
X8828Y127919D01*
X8746Y127936D01*
X8665Y127956D01*
X8585Y127980D01*
X8506Y128008D01*
X8429Y128039D01*
X8353Y128073D01*
X8278Y128111D01*
X8205Y128153D01*
X8135Y128197D01*
X8066Y128245D01*
X7999Y128295D01*
X7935Y128349D01*
X7874Y128405D01*
X7814Y128465D01*
X7758Y128526D01*
X7704Y128590D01*
X7654Y128657D01*
X7606Y128726D01*
X7562Y128796D01*
X7520Y128869D01*
X7482Y128944D01*
X7448Y129020D01*
X7417Y129097D01*
X7389Y129176D01*
X7365Y129256D01*
X7345Y129337D01*
X7328Y129419D01*
X7315Y129502D01*
X7305Y129585D01*
X7300Y129668D01*
X7298Y129752D01*
X7298Y130683D01*
X7300Y130767D01*
X7306Y130850D01*
X7315Y130933D01*
X7328Y131016D01*
X7345Y131098D01*
X7365Y131179D01*
X7389Y131259D01*
X7417Y131338D01*
X7448Y131415D01*
X7482Y131491D01*
X7520Y131566D01*
X7562Y131639D01*
X7606Y131709D01*
X7654Y131778D01*
X7704Y131845D01*
X7758Y131909D01*
X7814Y131970D01*
X7874Y132030D01*
X7935Y132086D01*
X7999Y132140D01*
X8066Y132190D01*
X8135Y132238D01*
X8205Y132282D01*
X8278Y132324D01*
X8353Y132362D01*
X8429Y132396D01*
X8506Y132427D01*
X8585Y132455D01*
X8665Y132479D01*
X8746Y132499D01*
X8828Y132516D01*
X8911Y132529D01*
X8994Y132539D01*
X9077Y132544D01*
X9161Y132546D01*
X11955Y132546D01*
X11955Y136271D01*
X7298Y136271D01*
X3277Y136271D02*
X483Y127889D01*
X-2311Y136271D01*
X-9609Y137202D02*
X-5884Y126958D01*
X-13648Y127889D02*
X-16442Y127889D01*
X-16526Y127891D01*
X-16609Y127897D01*
X-16692Y127906D01*
X-16775Y127919D01*
X-16857Y127936D01*
X-16938Y127956D01*
X-17018Y127980D01*
X-17097Y128008D01*
X-17174Y128039D01*
X-17250Y128073D01*
X-17325Y128111D01*
X-17398Y128153D01*
X-17468Y128197D01*
X-17537Y128245D01*
X-17604Y128295D01*
X-17668Y128349D01*
X-17729Y128405D01*
X-17789Y128465D01*
X-17845Y128526D01*
X-17899Y128590D01*
X-17949Y128657D01*
X-17997Y128726D01*
X-18041Y128796D01*
X-18083Y128869D01*
X-18121Y128944D01*
X-18155Y129020D01*
X-18186Y129097D01*
X-18214Y129176D01*
X-18238Y129256D01*
X-18258Y129337D01*
X-18275Y129419D01*
X-18288Y129502D01*
X-18298Y129585D01*
X-18303Y129668D01*
X-18305Y129752D01*
X-18305Y130683D01*
X-18303Y130767D01*
X-18298Y130850D01*
X-18288Y130933D01*
X-18275Y131016D01*
X-18258Y131098D01*
X-18238Y131179D01*
X-18214Y131259D01*
X-18186Y131338D01*
X-18155Y131415D01*
X-18121Y131491D01*
X-18083Y131566D01*
X-18041Y131639D01*
X-17997Y131709D01*
X-17949Y131778D01*
X-17899Y131845D01*
X-17845Y131909D01*
X-17789Y131970D01*
X-17729Y132030D01*
X-17668Y132086D01*
X-17604Y132140D01*
X-17537Y132190D01*
X-17468Y132238D01*
X-17398Y132282D01*
X-17325Y132324D01*
X-17250Y132362D01*
X-17174Y132396D01*
X-17097Y132427D01*
X-17018Y132455D01*
X-16938Y132479D01*
X-16857Y132499D01*
X-16775Y132516D01*
X-16692Y132529D01*
X-16609Y132539D01*
X-16526Y132544D01*
X-16442Y132546D01*
X-13648Y132546D01*
X-13648Y136271D01*
X-18305Y136271D01*
X-23490Y135107D02*
X-23420Y134958D01*
X-23353Y134807D01*
X-23290Y134655D01*
X-23230Y134501D01*
X-23174Y134346D01*
X-23122Y134189D01*
X-23074Y134032D01*
X-23029Y133873D01*
X-22988Y133713D01*
X-22951Y133553D01*
X-22918Y133391D01*
X-22888Y133229D01*
X-22863Y133066D01*
X-22841Y132903D01*
X-22823Y132739D01*
X-22810Y132574D01*
X-22800Y132410D01*
X-22794Y132245D01*
X-22792Y132080D01*
X-23490Y135107D02*
X-23519Y135184D01*
X-23551Y135260D01*
X-23586Y135334D01*
X-23626Y135406D01*
X-23668Y135476D01*
X-23714Y135544D01*
X-23763Y135610D01*
X-23816Y135674D01*
X-23871Y135735D01*
X-23929Y135793D01*
X-23989Y135848D01*
X-24053Y135901D01*
X-24119Y135950D01*
X-24187Y135996D01*
X-24257Y136039D01*
X-24329Y136079D01*
X-24403Y136115D01*
X-24478Y136147D01*
X-24555Y136176D01*
X-24633Y136201D01*
X-24713Y136222D01*
X-24793Y136240D01*
X-24874Y136253D01*
X-24956Y136263D01*
X-25038Y136269D01*
X-25120Y136271D01*
X-25202Y136269D01*
X-25284Y136263D01*
X-25366Y136253D01*
X-25447Y136240D01*
X-25527Y136222D01*
X-25607Y136201D01*
X-25685Y136176D01*
X-25762Y136147D01*
X-25837Y136115D01*
X-25911Y136079D01*
X-25983Y136039D01*
X-26053Y135996D01*
X-26121Y135950D01*
X-26187Y135901D01*
X-26251Y135848D01*
X-26311Y135793D01*
X-26369Y135735D01*
X-26424Y135674D01*
X-26477Y135610D01*
X-26526Y135544D01*
X-26572Y135476D01*
X-26614Y135406D01*
X-26654Y135334D01*
X-26689Y135260D01*
X-26721Y135184D01*
X-26750Y135107D01*
X-26820Y134958D01*
X-26887Y134807D01*
X-26950Y134655D01*
X-27010Y134501D01*
X-27066Y134346D01*
X-27118Y134189D01*
X-27166Y134032D01*
X-27211Y133873D01*
X-27252Y133713D01*
X-27289Y133553D01*
X-27322Y133391D01*
X-27352Y133229D01*
X-27377Y133066D01*
X-27399Y132903D01*
X-27417Y132739D01*
X-27430Y132574D01*
X-27440Y132410D01*
X-27446Y132245D01*
X-27448Y132080D01*
X-22791Y132080D02*
X-22793Y131915D01*
X-22799Y131750D01*
X-22809Y131586D01*
X-22822Y131421D01*
X-22840Y131257D01*
X-22862Y131094D01*
X-22887Y130931D01*
X-22917Y130769D01*
X-22950Y130607D01*
X-22987Y130446D01*
X-23028Y130287D01*
X-23073Y130128D01*
X-23121Y129970D01*
X-23173Y129814D01*
X-23229Y129659D01*
X-23289Y129505D01*
X-23352Y129353D01*
X-23419Y129202D01*
X-23490Y129053D01*
X-23519Y128976D01*
X-23551Y128900D01*
X-23587Y128826D01*
X-23626Y128754D01*
X-23668Y128684D01*
X-23714Y128616D01*
X-23763Y128550D01*
X-23816Y128486D01*
X-23871Y128425D01*
X-23929Y128367D01*
X-23989Y128312D01*
X-24053Y128259D01*
X-24119Y128210D01*
X-24187Y128164D01*
X-24257Y128121D01*
X-24329Y128081D01*
X-24403Y128045D01*
X-24478Y128013D01*
X-24555Y127984D01*
X-24633Y127959D01*
X-24713Y127938D01*
X-24793Y127920D01*
X-24874Y127907D01*
X-24956Y127897D01*
X-25038Y127891D01*
X-25120Y127889D01*
X-26750Y129053D02*
X-26821Y129202D01*
X-26888Y129353D01*
X-26951Y129505D01*
X-27011Y129659D01*
X-27067Y129814D01*
X-27119Y129970D01*
X-27167Y130128D01*
X-27212Y130287D01*
X-27253Y130446D01*
X-27290Y130607D01*
X-27323Y130769D01*
X-27353Y130931D01*
X-27378Y131094D01*
X-27400Y131257D01*
X-27418Y131421D01*
X-27431Y131586D01*
X-27441Y131750D01*
X-27447Y131915D01*
X-27449Y132080D01*
X-26750Y129053D02*
X-26721Y128976D01*
X-26689Y128900D01*
X-26653Y128826D01*
X-26614Y128754D01*
X-26572Y128684D01*
X-26526Y128616D01*
X-26477Y128550D01*
X-26424Y128486D01*
X-26369Y128425D01*
X-26311Y128367D01*
X-26251Y128312D01*
X-26187Y128259D01*
X-26121Y128210D01*
X-26053Y128164D01*
X-25983Y128121D01*
X-25911Y128081D01*
X-25837Y128045D01*
X-25762Y128013D01*
X-25685Y127984D01*
X-25607Y127959D01*
X-25527Y127938D01*
X-25447Y127920D01*
X-25366Y127907D01*
X-25284Y127897D01*
X-25202Y127891D01*
X-25120Y127889D01*
X-23258Y129752D02*
X-26983Y134408D01*
X-31936Y132080D02*
X-31938Y132245D01*
X-31944Y132410D01*
X-31954Y132574D01*
X-31967Y132739D01*
X-31985Y132903D01*
X-32007Y133066D01*
X-32032Y133229D01*
X-32062Y133391D01*
X-32095Y133553D01*
X-32132Y133713D01*
X-32173Y133873D01*
X-32218Y134032D01*
X-32266Y134189D01*
X-32318Y134346D01*
X-32374Y134501D01*
X-32434Y134655D01*
X-32497Y134807D01*
X-32564Y134958D01*
X-32634Y135107D01*
X-32663Y135184D01*
X-32695Y135260D01*
X-32730Y135334D01*
X-32770Y135406D01*
X-32812Y135476D01*
X-32858Y135544D01*
X-32907Y135610D01*
X-32960Y135674D01*
X-33015Y135735D01*
X-33073Y135793D01*
X-33133Y135848D01*
X-33197Y135901D01*
X-33263Y135950D01*
X-33331Y135996D01*
X-33401Y136039D01*
X-33473Y136079D01*
X-33547Y136115D01*
X-33622Y136147D01*
X-33699Y136176D01*
X-33777Y136201D01*
X-33857Y136222D01*
X-33937Y136240D01*
X-34018Y136253D01*
X-34100Y136263D01*
X-34182Y136269D01*
X-34264Y136271D01*
X-34346Y136269D01*
X-34428Y136263D01*
X-34510Y136253D01*
X-34591Y136240D01*
X-34671Y136222D01*
X-34751Y136201D01*
X-34829Y136176D01*
X-34906Y136147D01*
X-34981Y136115D01*
X-35055Y136079D01*
X-35127Y136039D01*
X-35197Y135996D01*
X-35265Y135950D01*
X-35331Y135901D01*
X-35395Y135848D01*
X-35455Y135793D01*
X-35513Y135735D01*
X-35568Y135674D01*
X-35621Y135610D01*
X-35670Y135544D01*
X-35716Y135476D01*
X-35758Y135406D01*
X-35798Y135334D01*
X-35833Y135260D01*
X-35865Y135184D01*
X-35894Y135107D01*
X-35964Y134958D01*
X-36031Y134807D01*
X-36094Y134655D01*
X-36154Y134501D01*
X-36210Y134346D01*
X-36262Y134189D01*
X-36310Y134032D01*
X-36355Y133873D01*
X-36396Y133713D01*
X-36433Y133553D01*
X-36466Y133391D01*
X-36496Y133229D01*
X-36521Y133066D01*
X-36543Y132903D01*
X-36561Y132739D01*
X-36574Y132574D01*
X-36584Y132410D01*
X-36590Y132245D01*
X-36592Y132080D01*
X-31935Y132080D02*
X-31937Y131915D01*
X-31943Y131750D01*
X-31953Y131586D01*
X-31966Y131421D01*
X-31984Y131257D01*
X-32006Y131094D01*
X-32031Y130931D01*
X-32061Y130769D01*
X-32094Y130607D01*
X-32131Y130446D01*
X-32172Y130287D01*
X-32217Y130128D01*
X-32265Y129970D01*
X-32317Y129814D01*
X-32373Y129659D01*
X-32433Y129505D01*
X-32496Y129353D01*
X-32563Y129202D01*
X-32634Y129053D01*
X-32663Y128976D01*
X-32695Y128900D01*
X-32731Y128826D01*
X-32770Y128754D01*
X-32812Y128684D01*
X-32858Y128616D01*
X-32907Y128550D01*
X-32960Y128486D01*
X-33015Y128425D01*
X-33073Y128367D01*
X-33133Y128312D01*
X-33197Y128259D01*
X-33263Y128210D01*
X-33331Y128164D01*
X-33401Y128121D01*
X-33473Y128081D01*
X-33547Y128045D01*
X-33622Y128013D01*
X-33699Y127984D01*
X-33777Y127959D01*
X-33857Y127938D01*
X-33937Y127920D01*
X-34018Y127907D01*
X-34100Y127897D01*
X-34182Y127891D01*
X-34264Y127889D01*
X-35894Y129053D02*
X-35965Y129202D01*
X-36032Y129353D01*
X-36095Y129505D01*
X-36155Y129659D01*
X-36211Y129814D01*
X-36263Y129970D01*
X-36311Y130128D01*
X-36356Y130287D01*
X-36397Y130446D01*
X-36434Y130607D01*
X-36467Y130769D01*
X-36497Y130931D01*
X-36522Y131094D01*
X-36544Y131257D01*
X-36562Y131421D01*
X-36575Y131586D01*
X-36585Y131750D01*
X-36591Y131915D01*
X-36593Y132080D01*
X-35894Y129053D02*
X-35865Y128976D01*
X-35833Y128900D01*
X-35797Y128826D01*
X-35758Y128754D01*
X-35716Y128684D01*
X-35670Y128616D01*
X-35621Y128550D01*
X-35568Y128486D01*
X-35513Y128425D01*
X-35455Y128367D01*
X-35395Y128312D01*
X-35331Y128259D01*
X-35265Y128210D01*
X-35197Y128164D01*
X-35127Y128121D01*
X-35055Y128081D01*
X-34981Y128045D01*
X-34906Y128013D01*
X-34829Y127984D01*
X-34751Y127959D01*
X-34671Y127938D01*
X-34591Y127920D01*
X-34510Y127907D01*
X-34428Y127897D01*
X-34346Y127891D01*
X-34264Y127889D01*
X-32402Y129752D02*
X-36127Y134408D01*
X-41529Y133477D02*
X-41529Y127889D01*
X-41529Y133477D02*
X-45720Y133477D01*
X-45793Y133475D01*
X-45866Y133469D01*
X-45939Y133460D01*
X-46010Y133446D01*
X-46082Y133429D01*
X-46152Y133409D01*
X-46221Y133384D01*
X-46288Y133356D01*
X-46354Y133325D01*
X-46419Y133290D01*
X-46481Y133252D01*
X-46541Y133210D01*
X-46599Y133166D01*
X-46655Y133118D01*
X-46708Y133068D01*
X-46758Y133015D01*
X-46806Y132959D01*
X-46850Y132901D01*
X-46892Y132841D01*
X-46930Y132779D01*
X-46965Y132714D01*
X-46996Y132648D01*
X-47024Y132581D01*
X-47049Y132512D01*
X-47069Y132442D01*
X-47086Y132370D01*
X-47100Y132299D01*
X-47109Y132226D01*
X-47115Y132153D01*
X-47117Y132080D01*
X-47117Y127889D01*
X-44323Y127889D02*
X-44323Y133477D01*
X-51587Y127889D02*
X-54381Y136271D01*
X-57175Y127889D01*
X-56476Y129985D02*
X-52285Y129985D01*
X54737Y112649D02*
X57531Y121031D01*
X51943Y121031D02*
X54737Y112649D01*
X47422Y112649D02*
X47422Y121031D01*
X48353Y112649D02*
X46491Y112649D01*
X46491Y121031D02*
X48353Y121031D01*
X42130Y121031D02*
X42130Y112649D01*
X37474Y112649D02*
X42130Y121031D01*
X37474Y121031D02*
X37474Y112649D01*
X33024Y113348D02*
X33024Y113813D01*
X32559Y113813D01*
X32559Y113348D01*
X33024Y113348D01*
X33024Y117073D02*
X33024Y117539D01*
X32559Y117539D01*
X32559Y117073D01*
X33024Y117073D01*
X23537Y116840D02*
X23535Y117005D01*
X23529Y117170D01*
X23519Y117334D01*
X23506Y117499D01*
X23488Y117663D01*
X23466Y117826D01*
X23441Y117989D01*
X23411Y118151D01*
X23378Y118313D01*
X23341Y118473D01*
X23300Y118633D01*
X23255Y118792D01*
X23207Y118949D01*
X23155Y119106D01*
X23099Y119261D01*
X23039Y119415D01*
X22976Y119567D01*
X22909Y119718D01*
X22839Y119867D01*
X22810Y119944D01*
X22778Y120020D01*
X22743Y120094D01*
X22703Y120166D01*
X22661Y120236D01*
X22615Y120304D01*
X22566Y120370D01*
X22513Y120434D01*
X22458Y120495D01*
X22400Y120553D01*
X22340Y120608D01*
X22276Y120661D01*
X22210Y120710D01*
X22142Y120756D01*
X22072Y120799D01*
X22000Y120839D01*
X21926Y120875D01*
X21851Y120907D01*
X21774Y120936D01*
X21696Y120961D01*
X21616Y120982D01*
X21536Y121000D01*
X21455Y121013D01*
X21373Y121023D01*
X21291Y121029D01*
X21209Y121031D01*
X21127Y121029D01*
X21045Y121023D01*
X20963Y121013D01*
X20882Y121000D01*
X20802Y120982D01*
X20722Y120961D01*
X20644Y120936D01*
X20567Y120907D01*
X20492Y120875D01*
X20418Y120839D01*
X20346Y120799D01*
X20276Y120756D01*
X20208Y120710D01*
X20142Y120661D01*
X20079Y120608D01*
X20018Y120553D01*
X19960Y120495D01*
X19905Y120434D01*
X19852Y120370D01*
X19803Y120304D01*
X19757Y120236D01*
X19715Y120166D01*
X19676Y120094D01*
X19640Y120020D01*
X19608Y119944D01*
X19579Y119867D01*
X19509Y119718D01*
X19442Y119567D01*
X19379Y119415D01*
X19319Y119261D01*
X19263Y119106D01*
X19211Y118949D01*
X19163Y118792D01*
X19118Y118633D01*
X19077Y118473D01*
X19040Y118313D01*
X19007Y118151D01*
X18977Y117989D01*
X18952Y117826D01*
X18930Y117663D01*
X18912Y117499D01*
X18899Y117334D01*
X18889Y117170D01*
X18883Y117005D01*
X18881Y116840D01*
X23538Y116840D02*
X23536Y116675D01*
X23530Y116510D01*
X23520Y116346D01*
X23507Y116181D01*
X23489Y116017D01*
X23467Y115854D01*
X23442Y115691D01*
X23412Y115529D01*
X23379Y115367D01*
X23342Y115206D01*
X23301Y115047D01*
X23256Y114888D01*
X23208Y114730D01*
X23156Y114574D01*
X23100Y114419D01*
X23040Y114265D01*
X22977Y114113D01*
X22910Y113962D01*
X22839Y113813D01*
X22810Y113736D01*
X22778Y113660D01*
X22742Y113586D01*
X22703Y113514D01*
X22661Y113444D01*
X22615Y113376D01*
X22566Y113310D01*
X22513Y113246D01*
X22458Y113185D01*
X22400Y113127D01*
X22340Y113072D01*
X22276Y113019D01*
X22210Y112970D01*
X22142Y112924D01*
X22072Y112881D01*
X22000Y112841D01*
X21926Y112805D01*
X21851Y112773D01*
X21774Y112744D01*
X21696Y112719D01*
X21616Y112698D01*
X21536Y112680D01*
X21455Y112667D01*
X21373Y112657D01*
X21291Y112651D01*
X21209Y112649D01*
X19579Y113813D02*
X19508Y113962D01*
X19441Y114113D01*
X19378Y114265D01*
X19318Y114419D01*
X19262Y114574D01*
X19210Y114730D01*
X19162Y114888D01*
X19117Y115047D01*
X19076Y115206D01*
X19039Y115367D01*
X19006Y115529D01*
X18976Y115691D01*
X18951Y115854D01*
X18929Y116017D01*
X18911Y116181D01*
X18898Y116346D01*
X18888Y116510D01*
X18882Y116675D01*
X18880Y116840D01*
X19579Y113813D02*
X19608Y113736D01*
X19640Y113660D01*
X19676Y113586D01*
X19715Y113514D01*
X19757Y113444D01*
X19803Y113376D01*
X19852Y113310D01*
X19905Y113246D01*
X19960Y113185D01*
X20018Y113127D01*
X20079Y113072D01*
X20142Y113019D01*
X20208Y112970D01*
X20276Y112924D01*
X20346Y112881D01*
X20418Y112841D01*
X20492Y112805D01*
X20567Y112773D01*
X20644Y112744D01*
X20722Y112719D01*
X20802Y112698D01*
X20882Y112680D01*
X20963Y112667D01*
X21045Y112657D01*
X21127Y112651D01*
X21209Y112649D01*
X23072Y114512D02*
X19347Y119168D01*
X14537Y115443D02*
X14535Y115501D01*
X14530Y115560D01*
X14521Y115617D01*
X14508Y115675D01*
X14491Y115731D01*
X14472Y115786D01*
X14448Y115839D01*
X14422Y115892D01*
X14392Y115942D01*
X14359Y115990D01*
X14323Y116036D01*
X14285Y116080D01*
X14243Y116122D01*
X14199Y116160D01*
X14153Y116196D01*
X14105Y116229D01*
X14055Y116259D01*
X14002Y116285D01*
X13949Y116309D01*
X13894Y116328D01*
X13838Y116345D01*
X13780Y116358D01*
X13723Y116367D01*
X13664Y116372D01*
X13606Y116374D01*
X13539Y116372D01*
X13471Y116366D01*
X13405Y116356D01*
X13339Y116343D01*
X13273Y116325D01*
X13209Y116304D01*
X13147Y116280D01*
X13085Y116251D01*
X13026Y116219D01*
X12969Y116184D01*
X12913Y116145D01*
X12860Y116104D01*
X12810Y116059D01*
X12762Y116011D01*
X12717Y115961D01*
X12675Y115908D01*
X12674Y115909D02*
X12632Y115856D01*
X12587Y115806D01*
X12539Y115758D01*
X12489Y115713D01*
X12436Y115672D01*
X12380Y115633D01*
X12323Y115598D01*
X12264Y115566D01*
X12202Y115537D01*
X12140Y115513D01*
X12076Y115492D01*
X12010Y115474D01*
X11944Y115461D01*
X11878Y115451D01*
X11810Y115445D01*
X11743Y115443D01*
X11685Y115445D01*
X11626Y115450D01*
X11569Y115459D01*
X11512Y115472D01*
X11455Y115489D01*
X11400Y115508D01*
X11347Y115532D01*
X11295Y115558D01*
X11244Y115588D01*
X11196Y115621D01*
X11150Y115657D01*
X11106Y115695D01*
X11064Y115737D01*
X11026Y115781D01*
X10990Y115827D01*
X10957Y115875D01*
X10927Y115926D01*
X10901Y115978D01*
X10877Y116031D01*
X10858Y116086D01*
X10841Y116143D01*
X10828Y116200D01*
X10819Y116257D01*
X10814Y116316D01*
X10812Y116374D01*
X6469Y112649D02*
X3675Y112649D01*
X3591Y112651D01*
X3508Y112656D01*
X3425Y112666D01*
X3342Y112679D01*
X3260Y112696D01*
X3179Y112716D01*
X3099Y112740D01*
X3020Y112768D01*
X2943Y112799D01*
X2867Y112833D01*
X2792Y112871D01*
X2719Y112913D01*
X2649Y112957D01*
X2580Y113005D01*
X2513Y113055D01*
X2449Y113109D01*
X2388Y113165D01*
X2328Y113225D01*
X2272Y113286D01*
X2218Y113350D01*
X2168Y113417D01*
X2120Y113486D01*
X2076Y113556D01*
X2034Y113629D01*
X1996Y113704D01*
X1962Y113780D01*
X1931Y113857D01*
X1903Y113936D01*
X1879Y114016D01*
X1859Y114097D01*
X1842Y114179D01*
X1829Y114262D01*
X1819Y114345D01*
X1814Y114428D01*
X1812Y114512D01*
X1812Y115443D01*
X1814Y115527D01*
X1820Y115610D01*
X1829Y115693D01*
X1842Y115776D01*
X1859Y115858D01*
X1879Y115939D01*
X1903Y116019D01*
X1931Y116098D01*
X1962Y116175D01*
X1996Y116251D01*
X2034Y116326D01*
X2076Y116399D01*
X2120Y116469D01*
X2168Y116538D01*
X2218Y116605D01*
X2272Y116669D01*
X2328Y116730D01*
X2388Y116790D01*
X2449Y116846D01*
X2513Y116900D01*
X2580Y116950D01*
X2649Y116998D01*
X2719Y117042D01*
X2792Y117084D01*
X2867Y117122D01*
X2943Y117156D01*
X3020Y117187D01*
X3099Y117215D01*
X3179Y117239D01*
X3260Y117259D01*
X3342Y117276D01*
X3425Y117289D01*
X3508Y117299D01*
X3591Y117304D01*
X3675Y117306D01*
X6469Y117306D01*
X6469Y121031D01*
X1812Y121031D01*
X-3373Y119867D02*
X-3303Y119718D01*
X-3236Y119567D01*
X-3173Y119415D01*
X-3113Y119261D01*
X-3057Y119106D01*
X-3005Y118949D01*
X-2957Y118792D01*
X-2912Y118633D01*
X-2871Y118473D01*
X-2834Y118313D01*
X-2801Y118151D01*
X-2771Y117989D01*
X-2746Y117826D01*
X-2724Y117663D01*
X-2706Y117499D01*
X-2693Y117334D01*
X-2683Y117170D01*
X-2677Y117005D01*
X-2675Y116840D01*
X-3373Y119867D02*
X-3402Y119944D01*
X-3434Y120020D01*
X-3469Y120094D01*
X-3509Y120166D01*
X-3551Y120236D01*
X-3597Y120304D01*
X-3646Y120370D01*
X-3699Y120434D01*
X-3754Y120495D01*
X-3812Y120553D01*
X-3872Y120608D01*
X-3936Y120661D01*
X-4002Y120710D01*
X-4070Y120756D01*
X-4140Y120799D01*
X-4212Y120839D01*
X-4286Y120875D01*
X-4361Y120907D01*
X-4438Y120936D01*
X-4516Y120961D01*
X-4596Y120982D01*
X-4676Y121000D01*
X-4757Y121013D01*
X-4839Y121023D01*
X-4921Y121029D01*
X-5003Y121031D01*
X-5085Y121029D01*
X-5167Y121023D01*
X-5249Y121013D01*
X-5330Y121000D01*
X-5410Y120982D01*
X-5490Y120961D01*
X-5568Y120936D01*
X-5645Y120907D01*
X-5720Y120875D01*
X-5794Y120839D01*
X-5866Y120799D01*
X-5936Y120756D01*
X-6004Y120710D01*
X-6070Y120661D01*
X-6134Y120608D01*
X-6194Y120553D01*
X-6252Y120495D01*
X-6307Y120434D01*
X-6360Y120370D01*
X-6409Y120304D01*
X-6455Y120236D01*
X-6497Y120166D01*
X-6537Y120094D01*
X-6572Y120020D01*
X-6604Y119944D01*
X-6633Y119867D01*
X-6634Y119867D02*
X-6704Y119718D01*
X-6771Y119567D01*
X-6834Y119415D01*
X-6894Y119261D01*
X-6950Y119106D01*
X-7002Y118949D01*
X-7050Y118792D01*
X-7095Y118633D01*
X-7136Y118473D01*
X-7173Y118313D01*
X-7206Y118151D01*
X-7236Y117989D01*
X-7261Y117826D01*
X-7283Y117663D01*
X-7301Y117499D01*
X-7314Y117334D01*
X-7324Y117170D01*
X-7330Y117005D01*
X-7332Y116840D01*
X-2675Y116840D02*
X-2677Y116675D01*
X-2683Y116510D01*
X-2693Y116346D01*
X-2706Y116181D01*
X-2724Y116017D01*
X-2746Y115854D01*
X-2771Y115691D01*
X-2801Y115529D01*
X-2834Y115367D01*
X-2871Y115206D01*
X-2912Y115047D01*
X-2957Y114888D01*
X-3005Y114730D01*
X-3057Y114574D01*
X-3113Y114419D01*
X-3173Y114265D01*
X-3236Y114113D01*
X-3303Y113962D01*
X-3374Y113813D01*
X-3373Y113813D02*
X-3402Y113736D01*
X-3434Y113660D01*
X-3470Y113586D01*
X-3509Y113514D01*
X-3551Y113444D01*
X-3597Y113376D01*
X-3646Y113310D01*
X-3699Y113246D01*
X-3754Y113185D01*
X-3812Y113127D01*
X-3872Y113072D01*
X-3936Y113019D01*
X-4002Y112970D01*
X-4070Y112924D01*
X-4140Y112881D01*
X-4212Y112841D01*
X-4286Y112805D01*
X-4361Y112773D01*
X-4438Y112744D01*
X-4516Y112719D01*
X-4596Y112698D01*
X-4676Y112680D01*
X-4757Y112667D01*
X-4839Y112657D01*
X-4921Y112651D01*
X-5003Y112649D01*
X-6633Y113813D02*
X-6704Y113962D01*
X-6771Y114113D01*
X-6834Y114265D01*
X-6894Y114419D01*
X-6950Y114574D01*
X-7002Y114730D01*
X-7050Y114888D01*
X-7095Y115047D01*
X-7136Y115206D01*
X-7173Y115367D01*
X-7206Y115529D01*
X-7236Y115691D01*
X-7261Y115854D01*
X-7283Y116017D01*
X-7301Y116181D01*
X-7314Y116346D01*
X-7324Y116510D01*
X-7330Y116675D01*
X-7332Y116840D01*
X-6633Y113813D02*
X-6604Y113736D01*
X-6572Y113660D01*
X-6536Y113586D01*
X-6497Y113514D01*
X-6455Y113444D01*
X-6409Y113376D01*
X-6360Y113310D01*
X-6307Y113246D01*
X-6252Y113185D01*
X-6194Y113127D01*
X-6134Y113072D01*
X-6070Y113019D01*
X-6004Y112970D01*
X-5936Y112924D01*
X-5866Y112881D01*
X-5794Y112841D01*
X-5720Y112805D01*
X-5645Y112773D01*
X-5568Y112744D01*
X-5490Y112719D01*
X-5410Y112698D01*
X-5330Y112680D01*
X-5249Y112667D01*
X-5167Y112657D01*
X-5085Y112651D01*
X-5003Y112649D01*
X-3141Y114512D02*
X-6866Y119168D01*
X-11353Y121031D02*
X-14147Y112649D01*
X-16941Y121031D01*
X57531Y105791D02*
X57531Y97409D01*
X57531Y105791D02*
X55203Y105791D01*
X55108Y105789D01*
X55013Y105783D01*
X54919Y105774D01*
X54825Y105760D01*
X54731Y105743D01*
X54639Y105722D01*
X54547Y105697D01*
X54457Y105668D01*
X54367Y105636D01*
X54279Y105600D01*
X54193Y105560D01*
X54108Y105518D01*
X54025Y105471D01*
X53944Y105421D01*
X53866Y105368D01*
X53789Y105312D01*
X53715Y105253D01*
X53643Y105191D01*
X53574Y105126D01*
X53507Y105058D01*
X53444Y104988D01*
X53383Y104914D01*
X53325Y104839D01*
X53271Y104761D01*
X53219Y104681D01*
X53171Y104599D01*
X53127Y104516D01*
X53085Y104430D01*
X53048Y104343D01*
X53014Y104254D01*
X52983Y104164D01*
X52956Y104073D01*
X52933Y103981D01*
X52914Y103888D01*
X52899Y103794D01*
X52887Y103700D01*
X52879Y103605D01*
X52875Y103510D01*
X52875Y103416D01*
X52879Y103321D01*
X52887Y103226D01*
X52899Y103132D01*
X52914Y103038D01*
X52933Y102945D01*
X52956Y102853D01*
X52983Y102762D01*
X53014Y102672D01*
X53048Y102583D01*
X53085Y102496D01*
X53127Y102410D01*
X53171Y102327D01*
X53219Y102245D01*
X53271Y102165D01*
X53325Y102087D01*
X53383Y102012D01*
X53444Y101938D01*
X53507Y101868D01*
X53574Y101800D01*
X53643Y101735D01*
X53715Y101673D01*
X53789Y101614D01*
X53866Y101558D01*
X53944Y101505D01*
X54025Y101455D01*
X54108Y101408D01*
X54193Y101366D01*
X54279Y101326D01*
X54367Y101290D01*
X54457Y101258D01*
X54547Y101229D01*
X54639Y101204D01*
X54731Y101183D01*
X54825Y101166D01*
X54919Y101152D01*
X55013Y101143D01*
X55108Y101137D01*
X55203Y101135D01*
X55203Y101134D02*
X57531Y101134D01*
X54737Y101134D02*
X52874Y97409D01*
X47228Y97409D02*
X44900Y97409D01*
X47228Y97409D02*
X47301Y97411D01*
X47374Y97417D01*
X47447Y97426D01*
X47518Y97440D01*
X47590Y97457D01*
X47660Y97477D01*
X47729Y97502D01*
X47796Y97530D01*
X47862Y97561D01*
X47927Y97596D01*
X47989Y97634D01*
X48049Y97676D01*
X48107Y97720D01*
X48163Y97768D01*
X48216Y97818D01*
X48266Y97871D01*
X48314Y97927D01*
X48358Y97985D01*
X48400Y98045D01*
X48438Y98108D01*
X48473Y98172D01*
X48504Y98238D01*
X48532Y98305D01*
X48557Y98374D01*
X48577Y98444D01*
X48594Y98516D01*
X48608Y98587D01*
X48617Y98660D01*
X48623Y98733D01*
X48625Y98806D01*
X48625Y101134D01*
X48623Y101219D01*
X48617Y101303D01*
X48608Y101388D01*
X48594Y101471D01*
X48577Y101554D01*
X48556Y101637D01*
X48531Y101718D01*
X48503Y101798D01*
X48471Y101876D01*
X48435Y101953D01*
X48396Y102029D01*
X48354Y102102D01*
X48308Y102173D01*
X48259Y102243D01*
X48207Y102310D01*
X48152Y102374D01*
X48094Y102436D01*
X48034Y102496D01*
X47970Y102552D01*
X47905Y102606D01*
X47836Y102656D01*
X47766Y102703D01*
X47694Y102747D01*
X47619Y102788D01*
X47543Y102825D01*
X47465Y102859D01*
X47386Y102889D01*
X47305Y102916D01*
X47224Y102939D01*
X47141Y102958D01*
X47058Y102973D01*
X46974Y102985D01*
X46889Y102993D01*
X46804Y102997D01*
X46720Y102997D01*
X46635Y102993D01*
X46550Y102985D01*
X46466Y102973D01*
X46383Y102958D01*
X46300Y102939D01*
X46219Y102916D01*
X46138Y102889D01*
X46059Y102859D01*
X45981Y102825D01*
X45905Y102788D01*
X45831Y102747D01*
X45758Y102703D01*
X45688Y102656D01*
X45619Y102606D01*
X45554Y102552D01*
X45490Y102496D01*
X45430Y102436D01*
X45372Y102374D01*
X45317Y102310D01*
X45265Y102243D01*
X45216Y102173D01*
X45170Y102102D01*
X45128Y102029D01*
X45089Y101953D01*
X45053Y101876D01*
X45021Y101798D01*
X44993Y101718D01*
X44968Y101637D01*
X44947Y101554D01*
X44930Y101471D01*
X44916Y101388D01*
X44907Y101303D01*
X44901Y101219D01*
X44899Y101134D01*
X44900Y101134D02*
X44900Y100203D01*
X48625Y100203D01*
X41005Y102997D02*
X39142Y97409D01*
X37280Y102997D01*
X33584Y98573D02*
X33584Y98108D01*
X33584Y98573D02*
X33118Y98573D01*
X33118Y98108D01*
X33584Y98108D01*
X33584Y101833D02*
X33584Y102299D01*
X33118Y102299D01*
X33118Y101833D01*
X33584Y101833D01*
X24097Y103928D02*
X21769Y105791D01*
X21769Y97409D01*
X24097Y97409D02*
X19440Y97409D01*
X15601Y97409D02*
X15601Y97875D01*
X15135Y97875D01*
X15135Y97409D01*
X15601Y97409D01*
X11295Y101600D02*
X11293Y101765D01*
X11287Y101930D01*
X11277Y102094D01*
X11264Y102259D01*
X11246Y102423D01*
X11224Y102586D01*
X11199Y102749D01*
X11169Y102911D01*
X11136Y103073D01*
X11099Y103233D01*
X11058Y103393D01*
X11013Y103552D01*
X10965Y103709D01*
X10913Y103866D01*
X10857Y104021D01*
X10797Y104175D01*
X10734Y104327D01*
X10667Y104478D01*
X10597Y104627D01*
X10568Y104704D01*
X10536Y104780D01*
X10501Y104854D01*
X10461Y104926D01*
X10419Y104996D01*
X10373Y105064D01*
X10324Y105130D01*
X10271Y105194D01*
X10216Y105255D01*
X10158Y105313D01*
X10098Y105368D01*
X10034Y105421D01*
X9968Y105470D01*
X9900Y105516D01*
X9830Y105559D01*
X9758Y105599D01*
X9684Y105635D01*
X9609Y105667D01*
X9532Y105696D01*
X9454Y105721D01*
X9374Y105742D01*
X9294Y105760D01*
X9213Y105773D01*
X9131Y105783D01*
X9049Y105789D01*
X8967Y105791D01*
X8885Y105789D01*
X8803Y105783D01*
X8721Y105773D01*
X8640Y105760D01*
X8560Y105742D01*
X8480Y105721D01*
X8402Y105696D01*
X8325Y105667D01*
X8250Y105635D01*
X8176Y105599D01*
X8104Y105559D01*
X8034Y105516D01*
X7966Y105470D01*
X7900Y105421D01*
X7837Y105368D01*
X7776Y105313D01*
X7718Y105255D01*
X7663Y105194D01*
X7610Y105130D01*
X7561Y105064D01*
X7515Y104996D01*
X7473Y104926D01*
X7434Y104854D01*
X7398Y104780D01*
X7366Y104704D01*
X7337Y104627D01*
X7267Y104478D01*
X7200Y104327D01*
X7137Y104175D01*
X7077Y104021D01*
X7021Y103866D01*
X6969Y103709D01*
X6921Y103552D01*
X6876Y103393D01*
X6835Y103233D01*
X6798Y103073D01*
X6765Y102911D01*
X6735Y102749D01*
X6710Y102586D01*
X6688Y102423D01*
X6670Y102259D01*
X6657Y102094D01*
X6647Y101930D01*
X6641Y101765D01*
X6639Y101600D01*
X11296Y101600D02*
X11294Y101435D01*
X11288Y101270D01*
X11278Y101106D01*
X11265Y100941D01*
X11247Y100777D01*
X11225Y100614D01*
X11200Y100451D01*
X11170Y100289D01*
X11137Y100127D01*
X11100Y99966D01*
X11059Y99807D01*
X11014Y99648D01*
X10966Y99490D01*
X10914Y99334D01*
X10858Y99179D01*
X10798Y99025D01*
X10735Y98873D01*
X10668Y98722D01*
X10597Y98573D01*
X10568Y98496D01*
X10536Y98420D01*
X10500Y98346D01*
X10461Y98274D01*
X10419Y98204D01*
X10373Y98136D01*
X10324Y98070D01*
X10271Y98006D01*
X10216Y97945D01*
X10158Y97887D01*
X10098Y97832D01*
X10034Y97779D01*
X9968Y97730D01*
X9900Y97684D01*
X9830Y97641D01*
X9758Y97601D01*
X9684Y97565D01*
X9609Y97533D01*
X9532Y97504D01*
X9454Y97479D01*
X9374Y97458D01*
X9294Y97440D01*
X9213Y97427D01*
X9131Y97417D01*
X9049Y97411D01*
X8967Y97409D01*
X7337Y98573D02*
X7266Y98722D01*
X7199Y98873D01*
X7136Y99025D01*
X7076Y99179D01*
X7020Y99334D01*
X6968Y99490D01*
X6920Y99648D01*
X6875Y99807D01*
X6834Y99966D01*
X6797Y100127D01*
X6764Y100289D01*
X6734Y100451D01*
X6709Y100614D01*
X6687Y100777D01*
X6669Y100941D01*
X6656Y101106D01*
X6646Y101270D01*
X6640Y101435D01*
X6638Y101600D01*
X7337Y98573D02*
X7366Y98496D01*
X7398Y98420D01*
X7434Y98346D01*
X7473Y98274D01*
X7515Y98204D01*
X7561Y98136D01*
X7610Y98070D01*
X7663Y98006D01*
X7718Y97945D01*
X7776Y97887D01*
X7837Y97832D01*
X7900Y97779D01*
X7966Y97730D01*
X8034Y97684D01*
X8104Y97641D01*
X8176Y97601D01*
X8250Y97565D01*
X8325Y97533D01*
X8402Y97504D01*
X8480Y97479D01*
X8560Y97458D01*
X8640Y97440D01*
X8721Y97427D01*
X8803Y97417D01*
X8885Y97411D01*
X8967Y97409D01*
X10830Y99272D02*
X7105Y103928D01*
X57531Y88223D02*
X57531Y84497D01*
X57531Y88223D02*
X57529Y88318D01*
X57523Y88413D01*
X57514Y88507D01*
X57500Y88601D01*
X57483Y88695D01*
X57462Y88787D01*
X57437Y88879D01*
X57408Y88969D01*
X57376Y89059D01*
X57340Y89147D01*
X57300Y89233D01*
X57258Y89318D01*
X57211Y89401D01*
X57161Y89482D01*
X57108Y89560D01*
X57052Y89637D01*
X56993Y89711D01*
X56931Y89783D01*
X56866Y89852D01*
X56798Y89919D01*
X56728Y89982D01*
X56654Y90043D01*
X56579Y90101D01*
X56501Y90155D01*
X56421Y90207D01*
X56339Y90255D01*
X56256Y90299D01*
X56170Y90341D01*
X56083Y90378D01*
X55994Y90412D01*
X55904Y90443D01*
X55813Y90470D01*
X55721Y90493D01*
X55628Y90512D01*
X55534Y90527D01*
X55440Y90539D01*
X55345Y90547D01*
X55250Y90551D01*
X55156Y90551D01*
X55061Y90547D01*
X54966Y90539D01*
X54872Y90527D01*
X54778Y90512D01*
X54685Y90493D01*
X54593Y90470D01*
X54502Y90443D01*
X54412Y90412D01*
X54323Y90378D01*
X54236Y90341D01*
X54150Y90299D01*
X54067Y90255D01*
X53985Y90207D01*
X53905Y90155D01*
X53827Y90101D01*
X53752Y90043D01*
X53678Y89982D01*
X53608Y89919D01*
X53540Y89852D01*
X53475Y89783D01*
X53413Y89711D01*
X53354Y89637D01*
X53298Y89560D01*
X53245Y89482D01*
X53195Y89401D01*
X53148Y89318D01*
X53106Y89233D01*
X53066Y89147D01*
X53030Y89059D01*
X52998Y88969D01*
X52969Y88879D01*
X52944Y88787D01*
X52923Y88695D01*
X52906Y88601D01*
X52892Y88507D01*
X52883Y88413D01*
X52877Y88318D01*
X52875Y88223D01*
X52874Y88223D02*
X52874Y84497D01*
X52875Y84497D02*
X52877Y84402D01*
X52883Y84307D01*
X52892Y84213D01*
X52906Y84119D01*
X52923Y84025D01*
X52944Y83933D01*
X52969Y83841D01*
X52998Y83751D01*
X53030Y83661D01*
X53066Y83573D01*
X53106Y83487D01*
X53148Y83402D01*
X53195Y83319D01*
X53245Y83238D01*
X53298Y83160D01*
X53354Y83083D01*
X53413Y83009D01*
X53475Y82937D01*
X53540Y82868D01*
X53608Y82801D01*
X53678Y82738D01*
X53752Y82677D01*
X53827Y82619D01*
X53905Y82565D01*
X53985Y82513D01*
X54067Y82465D01*
X54150Y82421D01*
X54236Y82379D01*
X54323Y82342D01*
X54412Y82308D01*
X54502Y82277D01*
X54593Y82250D01*
X54685Y82227D01*
X54778Y82208D01*
X54872Y82193D01*
X54966Y82181D01*
X55061Y82173D01*
X55156Y82169D01*
X55250Y82169D01*
X55345Y82173D01*
X55440Y82181D01*
X55534Y82193D01*
X55628Y82208D01*
X55721Y82227D01*
X55813Y82250D01*
X55904Y82277D01*
X55994Y82308D01*
X56083Y82342D01*
X56170Y82379D01*
X56256Y82421D01*
X56339Y82465D01*
X56421Y82513D01*
X56501Y82565D01*
X56579Y82619D01*
X56654Y82677D01*
X56728Y82738D01*
X56798Y82801D01*
X56866Y82868D01*
X56931Y82937D01*
X56993Y83009D01*
X57052Y83083D01*
X57108Y83160D01*
X57161Y83238D01*
X57211Y83319D01*
X57258Y83402D01*
X57300Y83487D01*
X57340Y83573D01*
X57376Y83661D01*
X57408Y83751D01*
X57437Y83841D01*
X57462Y83933D01*
X57483Y84025D01*
X57500Y84119D01*
X57514Y84213D01*
X57523Y84307D01*
X57529Y84402D01*
X57531Y84497D01*
X48521Y83566D02*
X48521Y90551D01*
X48521Y83566D02*
X48519Y83493D01*
X48513Y83420D01*
X48504Y83347D01*
X48490Y83276D01*
X48473Y83204D01*
X48453Y83134D01*
X48428Y83065D01*
X48400Y82998D01*
X48369Y82932D01*
X48334Y82868D01*
X48296Y82805D01*
X48254Y82745D01*
X48210Y82687D01*
X48162Y82631D01*
X48112Y82578D01*
X48059Y82528D01*
X48003Y82480D01*
X47945Y82436D01*
X47885Y82394D01*
X47823Y82356D01*
X47758Y82321D01*
X47692Y82290D01*
X47625Y82262D01*
X47556Y82237D01*
X47486Y82217D01*
X47414Y82200D01*
X47343Y82186D01*
X47270Y82177D01*
X47197Y82171D01*
X47124Y82169D01*
X40004Y82169D02*
X40004Y90551D01*
X40004Y82169D02*
X42332Y82169D01*
X42405Y82171D01*
X42478Y82177D01*
X42551Y82186D01*
X42622Y82200D01*
X42694Y82217D01*
X42764Y82237D01*
X42833Y82262D01*
X42900Y82290D01*
X42966Y82321D01*
X43031Y82356D01*
X43093Y82394D01*
X43153Y82436D01*
X43211Y82480D01*
X43267Y82528D01*
X43320Y82578D01*
X43370Y82631D01*
X43418Y82687D01*
X43462Y82745D01*
X43504Y82805D01*
X43542Y82868D01*
X43577Y82932D01*
X43608Y82998D01*
X43636Y83065D01*
X43661Y83134D01*
X43681Y83204D01*
X43698Y83276D01*
X43712Y83347D01*
X43721Y83420D01*
X43727Y83493D01*
X43729Y83566D01*
X43729Y86360D01*
X43727Y86433D01*
X43721Y86506D01*
X43712Y86579D01*
X43698Y86650D01*
X43681Y86722D01*
X43661Y86792D01*
X43636Y86861D01*
X43608Y86928D01*
X43577Y86994D01*
X43542Y87059D01*
X43504Y87121D01*
X43462Y87181D01*
X43418Y87239D01*
X43370Y87295D01*
X43320Y87348D01*
X43267Y87398D01*
X43211Y87446D01*
X43153Y87490D01*
X43093Y87532D01*
X43031Y87570D01*
X42966Y87605D01*
X42900Y87636D01*
X42833Y87664D01*
X42764Y87689D01*
X42694Y87709D01*
X42622Y87726D01*
X42551Y87740D01*
X42478Y87749D01*
X42405Y87755D01*
X42332Y87757D01*
X40004Y87757D01*
X31716Y86826D02*
X30319Y86826D01*
X30319Y82169D01*
X33113Y82169D01*
X33197Y82171D01*
X33280Y82177D01*
X33363Y82186D01*
X33446Y82199D01*
X33528Y82216D01*
X33609Y82236D01*
X33689Y82260D01*
X33768Y82288D01*
X33845Y82319D01*
X33921Y82353D01*
X33996Y82391D01*
X34069Y82433D01*
X34139Y82477D01*
X34208Y82525D01*
X34275Y82575D01*
X34339Y82629D01*
X34400Y82685D01*
X34460Y82745D01*
X34516Y82806D01*
X34570Y82870D01*
X34620Y82937D01*
X34668Y83006D01*
X34712Y83076D01*
X34754Y83149D01*
X34792Y83224D01*
X34826Y83300D01*
X34857Y83377D01*
X34885Y83456D01*
X34909Y83536D01*
X34929Y83617D01*
X34946Y83699D01*
X34959Y83782D01*
X34969Y83865D01*
X34974Y83948D01*
X34976Y84032D01*
X34976Y88688D01*
X34974Y88774D01*
X34968Y88860D01*
X34958Y88945D01*
X34944Y89030D01*
X34927Y89115D01*
X34905Y89198D01*
X34879Y89280D01*
X34850Y89361D01*
X34817Y89440D01*
X34781Y89518D01*
X34741Y89595D01*
X34697Y89669D01*
X34650Y89741D01*
X34600Y89811D01*
X34546Y89878D01*
X34490Y89943D01*
X34430Y90005D01*
X34368Y90065D01*
X34303Y90121D01*
X34236Y90175D01*
X34166Y90225D01*
X34094Y90272D01*
X34020Y90316D01*
X33943Y90356D01*
X33866Y90392D01*
X33786Y90425D01*
X33705Y90454D01*
X33623Y90480D01*
X33540Y90502D01*
X33455Y90519D01*
X33370Y90533D01*
X33285Y90543D01*
X33199Y90549D01*
X33113Y90551D01*
X30319Y90551D01*
X24274Y82169D02*
X21946Y82169D01*
X24274Y82169D02*
X24347Y82171D01*
X24420Y82177D01*
X24493Y82186D01*
X24564Y82200D01*
X24636Y82217D01*
X24706Y82237D01*
X24775Y82262D01*
X24842Y82290D01*
X24908Y82321D01*
X24973Y82356D01*
X25035Y82394D01*
X25095Y82436D01*
X25153Y82480D01*
X25209Y82528D01*
X25262Y82578D01*
X25312Y82631D01*
X25360Y82687D01*
X25404Y82745D01*
X25446Y82805D01*
X25484Y82868D01*
X25519Y82932D01*
X25550Y82998D01*
X25578Y83065D01*
X25603Y83134D01*
X25623Y83204D01*
X25640Y83276D01*
X25654Y83347D01*
X25663Y83420D01*
X25669Y83493D01*
X25671Y83566D01*
X25671Y85894D01*
X25669Y85979D01*
X25663Y86063D01*
X25654Y86148D01*
X25640Y86231D01*
X25623Y86314D01*
X25602Y86397D01*
X25577Y86478D01*
X25549Y86558D01*
X25517Y86636D01*
X25481Y86713D01*
X25442Y86789D01*
X25400Y86862D01*
X25354Y86933D01*
X25305Y87003D01*
X25253Y87070D01*
X25198Y87134D01*
X25140Y87196D01*
X25080Y87256D01*
X25016Y87312D01*
X24951Y87366D01*
X24882Y87416D01*
X24812Y87463D01*
X24740Y87507D01*
X24665Y87548D01*
X24589Y87585D01*
X24511Y87619D01*
X24432Y87649D01*
X24351Y87676D01*
X24270Y87699D01*
X24187Y87718D01*
X24104Y87733D01*
X24020Y87745D01*
X23935Y87753D01*
X23850Y87757D01*
X23766Y87757D01*
X23681Y87753D01*
X23596Y87745D01*
X23512Y87733D01*
X23429Y87718D01*
X23346Y87699D01*
X23265Y87676D01*
X23184Y87649D01*
X23105Y87619D01*
X23027Y87585D01*
X22951Y87548D01*
X22877Y87507D01*
X22804Y87463D01*
X22734Y87416D01*
X22665Y87366D01*
X22600Y87312D01*
X22536Y87256D01*
X22476Y87196D01*
X22418Y87134D01*
X22363Y87070D01*
X22311Y87003D01*
X22262Y86933D01*
X22216Y86862D01*
X22174Y86789D01*
X22135Y86713D01*
X22099Y86636D01*
X22067Y86558D01*
X22039Y86478D01*
X22014Y86397D01*
X21993Y86314D01*
X21976Y86231D01*
X21962Y86148D01*
X21953Y86063D01*
X21947Y85979D01*
X21945Y85894D01*
X21946Y85894D02*
X21946Y84963D01*
X25671Y84963D01*
X17357Y82169D02*
X17357Y87757D01*
X14563Y87757D01*
X14563Y86826D01*
X10753Y87757D02*
X10753Y82169D01*
X10753Y87757D02*
X6562Y87757D01*
X6489Y87755D01*
X6416Y87749D01*
X6343Y87740D01*
X6272Y87726D01*
X6200Y87709D01*
X6130Y87689D01*
X6061Y87664D01*
X5994Y87636D01*
X5928Y87605D01*
X5864Y87570D01*
X5801Y87532D01*
X5741Y87490D01*
X5683Y87446D01*
X5627Y87398D01*
X5574Y87348D01*
X5524Y87295D01*
X5476Y87239D01*
X5432Y87181D01*
X5390Y87121D01*
X5352Y87059D01*
X5317Y86994D01*
X5286Y86928D01*
X5258Y86861D01*
X5233Y86792D01*
X5213Y86722D01*
X5196Y86650D01*
X5182Y86579D01*
X5173Y86506D01*
X5167Y86433D01*
X5165Y86360D01*
X5165Y82169D01*
X7959Y82169D02*
X7959Y87757D01*
X-1182Y85429D02*
X-3277Y85429D01*
X-1182Y85429D02*
X-1102Y85427D01*
X-1022Y85421D01*
X-943Y85411D01*
X-864Y85398D01*
X-786Y85380D01*
X-709Y85359D01*
X-633Y85334D01*
X-558Y85305D01*
X-485Y85273D01*
X-414Y85237D01*
X-344Y85197D01*
X-276Y85154D01*
X-211Y85108D01*
X-148Y85059D01*
X-87Y85007D01*
X-29Y84952D01*
X26Y84894D01*
X78Y84833D01*
X127Y84770D01*
X173Y84705D01*
X216Y84637D01*
X256Y84567D01*
X292Y84496D01*
X324Y84423D01*
X353Y84348D01*
X378Y84272D01*
X399Y84195D01*
X417Y84117D01*
X430Y84038D01*
X440Y83959D01*
X446Y83879D01*
X448Y83799D01*
X446Y83719D01*
X440Y83639D01*
X430Y83560D01*
X417Y83481D01*
X399Y83403D01*
X378Y83326D01*
X353Y83250D01*
X324Y83175D01*
X292Y83102D01*
X256Y83031D01*
X216Y82961D01*
X173Y82893D01*
X127Y82828D01*
X78Y82765D01*
X26Y82704D01*
X-29Y82646D01*
X-87Y82591D01*
X-148Y82539D01*
X-211Y82490D01*
X-276Y82444D01*
X-344Y82401D01*
X-414Y82361D01*
X-485Y82325D01*
X-558Y82293D01*
X-633Y82264D01*
X-709Y82239D01*
X-786Y82218D01*
X-864Y82200D01*
X-943Y82187D01*
X-1022Y82177D01*
X-1102Y82171D01*
X-1182Y82169D01*
X-3277Y82169D01*
X-3277Y86360D01*
X-3275Y86433D01*
X-3269Y86506D01*
X-3260Y86579D01*
X-3246Y86650D01*
X-3229Y86722D01*
X-3209Y86792D01*
X-3184Y86861D01*
X-3156Y86928D01*
X-3125Y86994D01*
X-3090Y87059D01*
X-3052Y87121D01*
X-3010Y87181D01*
X-2966Y87239D01*
X-2918Y87295D01*
X-2868Y87348D01*
X-2815Y87398D01*
X-2759Y87446D01*
X-2701Y87490D01*
X-2641Y87532D01*
X-2579Y87570D01*
X-2514Y87605D01*
X-2448Y87636D01*
X-2381Y87664D01*
X-2312Y87689D01*
X-2242Y87709D01*
X-2170Y87726D01*
X-2099Y87740D01*
X-2026Y87749D01*
X-1953Y87755D01*
X-1880Y87757D01*
X-18Y87757D01*
X-8162Y87757D02*
X-8162Y82169D01*
X-8162Y87757D02*
X-10490Y87757D01*
X-10563Y87755D01*
X-10636Y87749D01*
X-10709Y87740D01*
X-10780Y87726D01*
X-10852Y87709D01*
X-10922Y87689D01*
X-10991Y87664D01*
X-11058Y87636D01*
X-11124Y87605D01*
X-11189Y87570D01*
X-11251Y87532D01*
X-11311Y87490D01*
X-11369Y87446D01*
X-11425Y87398D01*
X-11478Y87348D01*
X-11528Y87295D01*
X-11576Y87239D01*
X-11620Y87181D01*
X-11662Y87121D01*
X-11700Y87059D01*
X-11735Y86994D01*
X-11766Y86928D01*
X-11794Y86861D01*
X-11819Y86792D01*
X-11839Y86722D01*
X-11856Y86650D01*
X-11870Y86579D01*
X-11879Y86506D01*
X-11885Y86433D01*
X-11887Y86360D01*
X-11887Y82169D01*
D12*
X-33020Y82550D02*
X-39370Y115570D01*
X-45212Y95250D01*
X-36830Y94488D01*
X-45974Y85344D01*
X-35814Y84582D01*
X-44704Y93726D01*
X-49530Y82550D01*
D13*
X31774Y66802D02*
X31774Y61666D01*
X31773Y61666D02*
X31775Y61592D01*
X31781Y61517D01*
X31790Y61444D01*
X31803Y61370D01*
X31820Y61298D01*
X31840Y61227D01*
X31864Y61156D01*
X31892Y61087D01*
X31923Y61020D01*
X31957Y60954D01*
X31995Y60889D01*
X32036Y60827D01*
X32080Y60767D01*
X32127Y60710D01*
X32177Y60655D01*
X32230Y60602D01*
X32285Y60552D01*
X32342Y60505D01*
X32402Y60461D01*
X32464Y60420D01*
X32529Y60382D01*
X32595Y60348D01*
X32662Y60317D01*
X32731Y60289D01*
X32802Y60265D01*
X32873Y60245D01*
X32945Y60228D01*
X33019Y60215D01*
X33092Y60206D01*
X33167Y60200D01*
X33241Y60198D01*
X33975Y60198D01*
X27665Y60198D02*
X27665Y66802D01*
X27665Y60198D02*
X24730Y60198D01*
X20162Y60198D02*
X18694Y60198D01*
X20162Y60198D02*
X20236Y60200D01*
X20311Y60206D01*
X20384Y60215D01*
X20458Y60228D01*
X20530Y60245D01*
X20601Y60265D01*
X20672Y60289D01*
X20741Y60317D01*
X20809Y60348D01*
X20874Y60382D01*
X20939Y60420D01*
X21001Y60461D01*
X21061Y60505D01*
X21118Y60552D01*
X21173Y60602D01*
X21226Y60655D01*
X21276Y60710D01*
X21323Y60767D01*
X21367Y60827D01*
X21408Y60889D01*
X21446Y60954D01*
X21480Y61020D01*
X21511Y61087D01*
X21539Y61156D01*
X21563Y61227D01*
X21583Y61298D01*
X21600Y61371D01*
X21613Y61444D01*
X21622Y61518D01*
X21628Y61592D01*
X21630Y61666D01*
X21629Y61666D02*
X21629Y65334D01*
X21630Y65334D02*
X21628Y65408D01*
X21622Y65483D01*
X21613Y65556D01*
X21600Y65629D01*
X21583Y65702D01*
X21563Y65773D01*
X21539Y65844D01*
X21511Y65913D01*
X21480Y65980D01*
X21446Y66046D01*
X21408Y66111D01*
X21367Y66173D01*
X21323Y66233D01*
X21276Y66290D01*
X21226Y66345D01*
X21173Y66398D01*
X21118Y66448D01*
X21061Y66495D01*
X21001Y66539D01*
X20939Y66580D01*
X20874Y66618D01*
X20809Y66652D01*
X20741Y66683D01*
X20672Y66711D01*
X20602Y66735D01*
X20530Y66755D01*
X20458Y66772D01*
X20384Y66785D01*
X20311Y66794D01*
X20236Y66800D01*
X20162Y66802D01*
X18694Y66802D01*
X14217Y66802D02*
X14217Y61666D01*
X14219Y61592D01*
X14225Y61517D01*
X14234Y61444D01*
X14247Y61370D01*
X14264Y61298D01*
X14284Y61227D01*
X14308Y61156D01*
X14336Y61087D01*
X14367Y61020D01*
X14401Y60954D01*
X14439Y60889D01*
X14480Y60827D01*
X14524Y60767D01*
X14571Y60710D01*
X14621Y60655D01*
X14674Y60602D01*
X14729Y60552D01*
X14786Y60505D01*
X14846Y60461D01*
X14908Y60420D01*
X14973Y60382D01*
X15039Y60348D01*
X15106Y60317D01*
X15175Y60289D01*
X15246Y60265D01*
X15317Y60245D01*
X15389Y60228D01*
X15463Y60215D01*
X15536Y60206D01*
X15611Y60200D01*
X15685Y60198D01*
X16419Y60198D01*
X10109Y60198D02*
X10109Y66802D01*
X10109Y60198D02*
X7174Y60198D01*
X2605Y60198D02*
X1138Y60198D01*
X2605Y60198D02*
X2679Y60200D01*
X2754Y60206D01*
X2827Y60215D01*
X2901Y60228D01*
X2973Y60245D01*
X3044Y60265D01*
X3115Y60289D01*
X3184Y60317D01*
X3252Y60348D01*
X3317Y60382D01*
X3382Y60420D01*
X3444Y60461D01*
X3504Y60505D01*
X3561Y60552D01*
X3616Y60602D01*
X3669Y60655D01*
X3719Y60710D01*
X3766Y60767D01*
X3810Y60827D01*
X3851Y60889D01*
X3889Y60954D01*
X3923Y61020D01*
X3954Y61087D01*
X3982Y61156D01*
X4006Y61227D01*
X4026Y61298D01*
X4043Y61371D01*
X4056Y61444D01*
X4065Y61518D01*
X4071Y61592D01*
X4073Y61666D01*
X4073Y65334D01*
X4071Y65408D01*
X4065Y65483D01*
X4056Y65556D01*
X4043Y65629D01*
X4026Y65702D01*
X4006Y65773D01*
X3982Y65844D01*
X3954Y65913D01*
X3923Y65980D01*
X3889Y66046D01*
X3851Y66111D01*
X3810Y66173D01*
X3766Y66233D01*
X3719Y66290D01*
X3669Y66345D01*
X3616Y66398D01*
X3561Y66448D01*
X3504Y66495D01*
X3444Y66539D01*
X3382Y66580D01*
X3317Y66618D01*
X3252Y66652D01*
X3184Y66683D01*
X3115Y66711D01*
X3045Y66735D01*
X2973Y66755D01*
X2901Y66772D01*
X2827Y66785D01*
X2754Y66794D01*
X2679Y66800D01*
X2605Y66802D01*
X1138Y66802D01*
X-3339Y66802D02*
X-3339Y61666D01*
X-3337Y61592D01*
X-3331Y61517D01*
X-3322Y61444D01*
X-3309Y61370D01*
X-3292Y61298D01*
X-3272Y61227D01*
X-3248Y61156D01*
X-3220Y61087D01*
X-3189Y61020D01*
X-3155Y60954D01*
X-3117Y60889D01*
X-3076Y60827D01*
X-3032Y60767D01*
X-2985Y60710D01*
X-2935Y60655D01*
X-2882Y60602D01*
X-2827Y60552D01*
X-2770Y60505D01*
X-2710Y60461D01*
X-2648Y60420D01*
X-2583Y60382D01*
X-2517Y60348D01*
X-2450Y60317D01*
X-2381Y60289D01*
X-2310Y60265D01*
X-2239Y60245D01*
X-2167Y60228D01*
X-2093Y60215D01*
X-2020Y60206D01*
X-1945Y60200D01*
X-1871Y60198D01*
X-1138Y60198D01*
X-7447Y60198D02*
X-7447Y66802D01*
X-7447Y60198D02*
X-10382Y60198D01*
X-14951Y60198D02*
X-16419Y60198D01*
X-14951Y60198D02*
X-14877Y60200D01*
X-14802Y60206D01*
X-14729Y60215D01*
X-14655Y60228D01*
X-14583Y60245D01*
X-14512Y60265D01*
X-14441Y60289D01*
X-14372Y60317D01*
X-14305Y60348D01*
X-14239Y60382D01*
X-14174Y60420D01*
X-14112Y60461D01*
X-14052Y60505D01*
X-13995Y60552D01*
X-13940Y60602D01*
X-13887Y60655D01*
X-13837Y60710D01*
X-13790Y60767D01*
X-13746Y60827D01*
X-13705Y60889D01*
X-13667Y60954D01*
X-13633Y61020D01*
X-13602Y61087D01*
X-13574Y61156D01*
X-13550Y61227D01*
X-13530Y61298D01*
X-13513Y61370D01*
X-13500Y61444D01*
X-13491Y61517D01*
X-13485Y61592D01*
X-13483Y61666D01*
X-13484Y61666D02*
X-13484Y65334D01*
X-13483Y65334D02*
X-13485Y65408D01*
X-13491Y65483D01*
X-13500Y65556D01*
X-13513Y65630D01*
X-13530Y65702D01*
X-13550Y65773D01*
X-13574Y65844D01*
X-13602Y65913D01*
X-13633Y65980D01*
X-13667Y66046D01*
X-13705Y66111D01*
X-13746Y66173D01*
X-13790Y66233D01*
X-13837Y66290D01*
X-13887Y66345D01*
X-13940Y66398D01*
X-13995Y66448D01*
X-14052Y66495D01*
X-14112Y66539D01*
X-14174Y66580D01*
X-14239Y66618D01*
X-14304Y66652D01*
X-14372Y66683D01*
X-14441Y66711D01*
X-14512Y66735D01*
X-14583Y66755D01*
X-14655Y66772D01*
X-14729Y66785D01*
X-14802Y66794D01*
X-14877Y66800D01*
X-14951Y66802D01*
X-16419Y66802D01*
X-20895Y66802D02*
X-20895Y61666D01*
X-20896Y61666D02*
X-20894Y61592D01*
X-20888Y61517D01*
X-20879Y61444D01*
X-20866Y61370D01*
X-20849Y61298D01*
X-20829Y61227D01*
X-20805Y61156D01*
X-20777Y61087D01*
X-20746Y61019D01*
X-20712Y60954D01*
X-20674Y60889D01*
X-20633Y60827D01*
X-20589Y60767D01*
X-20542Y60710D01*
X-20492Y60655D01*
X-20439Y60602D01*
X-20384Y60552D01*
X-20327Y60505D01*
X-20267Y60461D01*
X-20205Y60420D01*
X-20140Y60382D01*
X-20074Y60348D01*
X-20007Y60317D01*
X-19938Y60289D01*
X-19867Y60265D01*
X-19796Y60245D01*
X-19723Y60228D01*
X-19650Y60215D01*
X-19576Y60206D01*
X-19502Y60200D01*
X-19428Y60198D01*
X-18694Y60198D01*
X-25004Y60198D02*
X-25004Y66802D01*
X-25004Y60198D02*
X-27939Y60198D01*
X-32508Y60198D02*
X-33975Y60198D01*
X-32508Y60198D02*
X-32434Y60200D01*
X-32359Y60206D01*
X-32286Y60215D01*
X-32212Y60228D01*
X-32140Y60245D01*
X-32069Y60265D01*
X-31998Y60289D01*
X-31929Y60317D01*
X-31862Y60348D01*
X-31796Y60382D01*
X-31731Y60420D01*
X-31669Y60461D01*
X-31609Y60505D01*
X-31552Y60552D01*
X-31497Y60602D01*
X-31444Y60655D01*
X-31394Y60710D01*
X-31347Y60767D01*
X-31303Y60827D01*
X-31262Y60889D01*
X-31224Y60954D01*
X-31190Y61020D01*
X-31159Y61087D01*
X-31131Y61156D01*
X-31107Y61227D01*
X-31087Y61298D01*
X-31070Y61370D01*
X-31057Y61444D01*
X-31048Y61517D01*
X-31042Y61592D01*
X-31040Y61666D01*
X-31040Y65334D01*
X-31042Y65408D01*
X-31048Y65483D01*
X-31057Y65556D01*
X-31070Y65630D01*
X-31087Y65702D01*
X-31107Y65773D01*
X-31131Y65844D01*
X-31159Y65913D01*
X-31190Y65980D01*
X-31224Y66046D01*
X-31262Y66111D01*
X-31303Y66173D01*
X-31347Y66233D01*
X-31394Y66290D01*
X-31444Y66345D01*
X-31497Y66398D01*
X-31552Y66448D01*
X-31609Y66495D01*
X-31669Y66539D01*
X-31731Y66580D01*
X-31796Y66618D01*
X-31861Y66652D01*
X-31929Y66683D01*
X-31998Y66711D01*
X-32069Y66735D01*
X-32140Y66755D01*
X-32212Y66772D01*
X-32286Y66785D01*
X-32359Y66794D01*
X-32434Y66800D01*
X-32508Y66802D01*
X-33975Y66802D01*
D14*
X-57150Y76200D02*
X57150Y76200D01*
X57150Y50800D02*
X-57150Y50800D01*
D11*
X-31539Y165418D02*
X-31537Y165507D01*
X-31531Y165596D01*
X-31522Y165684D01*
X-31509Y165772D01*
X-31492Y165860D01*
X-31471Y165946D01*
X-31447Y166032D01*
X-31419Y166116D01*
X-31388Y166200D01*
X-31353Y166281D01*
X-31315Y166362D01*
X-31273Y166440D01*
X-31228Y166517D01*
X-31180Y166592D01*
X-31128Y166664D01*
X-31074Y166735D01*
X-31016Y166803D01*
X-30956Y166868D01*
X-30893Y166931D01*
X-30828Y166991D01*
X-30760Y167049D01*
X-30689Y167103D01*
X-30617Y167155D01*
X-30542Y167203D01*
X-30465Y167248D01*
X-30387Y167290D01*
X-30306Y167328D01*
X-30225Y167363D01*
X-30141Y167394D01*
X-30057Y167422D01*
X-29971Y167446D01*
X-29885Y167467D01*
X-29797Y167484D01*
X-29709Y167497D01*
X-29621Y167506D01*
X-29532Y167512D01*
X-29443Y167514D01*
X-29443Y167513D02*
X-29340Y167511D01*
X-29238Y167505D01*
X-29136Y167495D01*
X-29034Y167482D01*
X-28933Y167464D01*
X-28833Y167443D01*
X-28733Y167418D01*
X-28635Y167389D01*
X-28538Y167356D01*
X-28442Y167320D01*
X-28347Y167280D01*
X-28254Y167236D01*
X-28163Y167189D01*
X-28074Y167139D01*
X-27987Y167085D01*
X-27901Y167028D01*
X-27818Y166968D01*
X-27738Y166904D01*
X-27660Y166838D01*
X-27584Y166768D01*
X-27511Y166696D01*
X-27441Y166621D01*
X-27374Y166543D01*
X-27310Y166463D01*
X-27249Y166381D01*
X-27191Y166296D01*
X-27137Y166209D01*
X-27085Y166120D01*
X-27038Y166030D01*
X-26993Y165937D01*
X-26953Y165843D01*
X-26915Y165747D01*
X-26882Y165650D01*
X-30840Y163788D02*
X-30905Y163852D01*
X-30967Y163919D01*
X-31027Y163988D01*
X-31083Y164060D01*
X-31136Y164133D01*
X-31187Y164209D01*
X-31234Y164287D01*
X-31278Y164367D01*
X-31319Y164448D01*
X-31357Y164531D01*
X-31391Y164616D01*
X-31422Y164702D01*
X-31449Y164789D01*
X-31473Y164877D01*
X-31493Y164965D01*
X-31510Y165055D01*
X-31522Y165145D01*
X-31532Y165236D01*
X-31537Y165327D01*
X-31539Y165418D01*
X-30840Y163788D02*
X-26882Y159131D01*
X-31538Y159131D01*
X-36026Y163322D02*
X-36028Y163487D01*
X-36034Y163652D01*
X-36044Y163816D01*
X-36057Y163981D01*
X-36075Y164145D01*
X-36097Y164308D01*
X-36122Y164471D01*
X-36152Y164633D01*
X-36185Y164795D01*
X-36222Y164955D01*
X-36263Y165115D01*
X-36308Y165274D01*
X-36356Y165431D01*
X-36408Y165588D01*
X-36464Y165743D01*
X-36524Y165897D01*
X-36587Y166049D01*
X-36654Y166200D01*
X-36724Y166349D01*
X-36753Y166426D01*
X-36785Y166502D01*
X-36820Y166576D01*
X-36860Y166648D01*
X-36902Y166718D01*
X-36948Y166786D01*
X-36997Y166852D01*
X-37050Y166916D01*
X-37105Y166977D01*
X-37163Y167035D01*
X-37223Y167090D01*
X-37287Y167143D01*
X-37353Y167192D01*
X-37421Y167238D01*
X-37491Y167281D01*
X-37563Y167321D01*
X-37637Y167357D01*
X-37712Y167389D01*
X-37789Y167418D01*
X-37867Y167443D01*
X-37947Y167464D01*
X-38027Y167482D01*
X-38108Y167495D01*
X-38190Y167505D01*
X-38272Y167511D01*
X-38354Y167513D01*
X-38436Y167511D01*
X-38518Y167505D01*
X-38600Y167495D01*
X-38681Y167482D01*
X-38761Y167464D01*
X-38841Y167443D01*
X-38919Y167418D01*
X-38996Y167389D01*
X-39071Y167357D01*
X-39145Y167321D01*
X-39217Y167281D01*
X-39287Y167238D01*
X-39355Y167192D01*
X-39421Y167143D01*
X-39485Y167090D01*
X-39545Y167035D01*
X-39603Y166977D01*
X-39658Y166916D01*
X-39711Y166852D01*
X-39760Y166786D01*
X-39806Y166718D01*
X-39848Y166648D01*
X-39888Y166576D01*
X-39923Y166502D01*
X-39955Y166426D01*
X-39984Y166349D01*
X-40054Y166200D01*
X-40121Y166049D01*
X-40184Y165897D01*
X-40244Y165743D01*
X-40300Y165588D01*
X-40352Y165431D01*
X-40400Y165274D01*
X-40445Y165115D01*
X-40486Y164955D01*
X-40523Y164795D01*
X-40556Y164633D01*
X-40586Y164471D01*
X-40611Y164308D01*
X-40633Y164145D01*
X-40651Y163981D01*
X-40664Y163816D01*
X-40674Y163652D01*
X-40680Y163487D01*
X-40682Y163322D01*
X-36025Y163322D02*
X-36027Y163157D01*
X-36033Y162992D01*
X-36043Y162828D01*
X-36056Y162663D01*
X-36074Y162499D01*
X-36096Y162336D01*
X-36121Y162173D01*
X-36151Y162011D01*
X-36184Y161849D01*
X-36221Y161688D01*
X-36262Y161529D01*
X-36307Y161370D01*
X-36355Y161212D01*
X-36407Y161056D01*
X-36463Y160901D01*
X-36523Y160747D01*
X-36586Y160595D01*
X-36653Y160444D01*
X-36724Y160295D01*
X-36753Y160218D01*
X-36785Y160142D01*
X-36821Y160068D01*
X-36860Y159996D01*
X-36902Y159926D01*
X-36948Y159858D01*
X-36997Y159792D01*
X-37050Y159728D01*
X-37105Y159667D01*
X-37163Y159609D01*
X-37223Y159554D01*
X-37287Y159501D01*
X-37353Y159452D01*
X-37421Y159406D01*
X-37491Y159363D01*
X-37563Y159323D01*
X-37637Y159287D01*
X-37712Y159255D01*
X-37789Y159226D01*
X-37867Y159201D01*
X-37947Y159180D01*
X-38027Y159162D01*
X-38108Y159149D01*
X-38190Y159139D01*
X-38272Y159133D01*
X-38354Y159131D01*
X-39984Y160295D02*
X-40055Y160444D01*
X-40122Y160595D01*
X-40185Y160747D01*
X-40245Y160901D01*
X-40301Y161056D01*
X-40353Y161212D01*
X-40401Y161370D01*
X-40446Y161529D01*
X-40487Y161688D01*
X-40524Y161849D01*
X-40557Y162011D01*
X-40587Y162173D01*
X-40612Y162336D01*
X-40634Y162499D01*
X-40652Y162663D01*
X-40665Y162828D01*
X-40675Y162992D01*
X-40681Y163157D01*
X-40683Y163322D01*
X-39984Y160295D02*
X-39955Y160218D01*
X-39923Y160142D01*
X-39887Y160068D01*
X-39848Y159996D01*
X-39806Y159926D01*
X-39760Y159858D01*
X-39711Y159792D01*
X-39658Y159728D01*
X-39603Y159667D01*
X-39545Y159609D01*
X-39485Y159554D01*
X-39421Y159501D01*
X-39355Y159452D01*
X-39287Y159406D01*
X-39217Y159363D01*
X-39145Y159323D01*
X-39071Y159287D01*
X-38996Y159255D01*
X-38919Y159226D01*
X-38841Y159201D01*
X-38761Y159180D01*
X-38681Y159162D01*
X-38600Y159149D01*
X-38518Y159139D01*
X-38436Y159133D01*
X-38354Y159131D01*
X-36491Y160994D02*
X-40217Y165650D01*
X-47731Y167514D02*
X-47820Y167512D01*
X-47909Y167506D01*
X-47997Y167497D01*
X-48085Y167484D01*
X-48173Y167467D01*
X-48259Y167446D01*
X-48345Y167422D01*
X-48429Y167394D01*
X-48513Y167363D01*
X-48594Y167328D01*
X-48675Y167290D01*
X-48753Y167248D01*
X-48830Y167203D01*
X-48905Y167155D01*
X-48977Y167103D01*
X-49048Y167049D01*
X-49116Y166991D01*
X-49181Y166931D01*
X-49244Y166868D01*
X-49304Y166803D01*
X-49362Y166735D01*
X-49416Y166664D01*
X-49468Y166592D01*
X-49516Y166517D01*
X-49561Y166440D01*
X-49603Y166362D01*
X-49641Y166281D01*
X-49676Y166200D01*
X-49707Y166116D01*
X-49735Y166032D01*
X-49759Y165946D01*
X-49780Y165860D01*
X-49797Y165772D01*
X-49810Y165684D01*
X-49819Y165596D01*
X-49825Y165507D01*
X-49827Y165418D01*
X-47731Y167513D02*
X-47628Y167511D01*
X-47526Y167505D01*
X-47424Y167495D01*
X-47322Y167482D01*
X-47221Y167464D01*
X-47121Y167443D01*
X-47021Y167418D01*
X-46923Y167389D01*
X-46826Y167356D01*
X-46730Y167320D01*
X-46635Y167280D01*
X-46542Y167236D01*
X-46451Y167189D01*
X-46362Y167139D01*
X-46275Y167085D01*
X-46189Y167028D01*
X-46106Y166968D01*
X-46026Y166904D01*
X-45948Y166838D01*
X-45872Y166768D01*
X-45799Y166696D01*
X-45729Y166621D01*
X-45662Y166543D01*
X-45598Y166463D01*
X-45537Y166381D01*
X-45479Y166296D01*
X-45425Y166209D01*
X-45373Y166120D01*
X-45326Y166030D01*
X-45281Y165937D01*
X-45241Y165843D01*
X-45203Y165747D01*
X-45170Y165650D01*
X-49128Y163788D02*
X-49193Y163852D01*
X-49255Y163919D01*
X-49315Y163988D01*
X-49371Y164060D01*
X-49424Y164133D01*
X-49475Y164209D01*
X-49522Y164287D01*
X-49566Y164367D01*
X-49607Y164448D01*
X-49645Y164531D01*
X-49679Y164616D01*
X-49710Y164702D01*
X-49737Y164789D01*
X-49761Y164877D01*
X-49781Y164965D01*
X-49798Y165055D01*
X-49810Y165145D01*
X-49820Y165236D01*
X-49825Y165327D01*
X-49827Y165418D01*
X-49128Y163788D02*
X-45170Y159131D01*
X-49826Y159131D01*
X-54314Y163322D02*
X-54316Y163487D01*
X-54322Y163652D01*
X-54332Y163816D01*
X-54345Y163981D01*
X-54363Y164145D01*
X-54385Y164308D01*
X-54410Y164471D01*
X-54440Y164633D01*
X-54473Y164795D01*
X-54510Y164955D01*
X-54551Y165115D01*
X-54596Y165274D01*
X-54644Y165431D01*
X-54696Y165588D01*
X-54752Y165743D01*
X-54812Y165897D01*
X-54875Y166049D01*
X-54942Y166200D01*
X-55012Y166349D01*
X-55041Y166426D01*
X-55073Y166502D01*
X-55108Y166576D01*
X-55148Y166648D01*
X-55190Y166718D01*
X-55236Y166786D01*
X-55285Y166852D01*
X-55338Y166916D01*
X-55393Y166977D01*
X-55451Y167035D01*
X-55511Y167090D01*
X-55575Y167143D01*
X-55641Y167192D01*
X-55709Y167238D01*
X-55779Y167281D01*
X-55851Y167321D01*
X-55925Y167357D01*
X-56000Y167389D01*
X-56077Y167418D01*
X-56155Y167443D01*
X-56235Y167464D01*
X-56315Y167482D01*
X-56396Y167495D01*
X-56478Y167505D01*
X-56560Y167511D01*
X-56642Y167513D01*
X-56724Y167511D01*
X-56806Y167505D01*
X-56888Y167495D01*
X-56969Y167482D01*
X-57049Y167464D01*
X-57129Y167443D01*
X-57207Y167418D01*
X-57284Y167389D01*
X-57359Y167357D01*
X-57433Y167321D01*
X-57505Y167281D01*
X-57575Y167238D01*
X-57643Y167192D01*
X-57709Y167143D01*
X-57773Y167090D01*
X-57833Y167035D01*
X-57891Y166977D01*
X-57946Y166916D01*
X-57999Y166852D01*
X-58048Y166786D01*
X-58094Y166718D01*
X-58136Y166648D01*
X-58176Y166576D01*
X-58211Y166502D01*
X-58243Y166426D01*
X-58272Y166349D01*
X-58342Y166200D01*
X-58409Y166049D01*
X-58472Y165897D01*
X-58532Y165743D01*
X-58588Y165588D01*
X-58640Y165431D01*
X-58688Y165274D01*
X-58733Y165115D01*
X-58774Y164955D01*
X-58811Y164795D01*
X-58844Y164633D01*
X-58874Y164471D01*
X-58899Y164308D01*
X-58921Y164145D01*
X-58939Y163981D01*
X-58952Y163816D01*
X-58962Y163652D01*
X-58968Y163487D01*
X-58970Y163322D01*
X-54313Y163322D02*
X-54315Y163157D01*
X-54321Y162992D01*
X-54331Y162828D01*
X-54344Y162663D01*
X-54362Y162499D01*
X-54384Y162336D01*
X-54409Y162173D01*
X-54439Y162011D01*
X-54472Y161849D01*
X-54509Y161688D01*
X-54550Y161529D01*
X-54595Y161370D01*
X-54643Y161212D01*
X-54695Y161056D01*
X-54751Y160901D01*
X-54811Y160747D01*
X-54874Y160595D01*
X-54941Y160444D01*
X-55012Y160295D01*
X-55041Y160218D01*
X-55073Y160142D01*
X-55109Y160068D01*
X-55148Y159996D01*
X-55190Y159926D01*
X-55236Y159858D01*
X-55285Y159792D01*
X-55338Y159728D01*
X-55393Y159667D01*
X-55451Y159609D01*
X-55511Y159554D01*
X-55575Y159501D01*
X-55641Y159452D01*
X-55709Y159406D01*
X-55779Y159363D01*
X-55851Y159323D01*
X-55925Y159287D01*
X-56000Y159255D01*
X-56077Y159226D01*
X-56155Y159201D01*
X-56235Y159180D01*
X-56315Y159162D01*
X-56396Y159149D01*
X-56478Y159139D01*
X-56560Y159133D01*
X-56642Y159131D01*
X-58272Y160295D02*
X-58343Y160444D01*
X-58410Y160595D01*
X-58473Y160747D01*
X-58533Y160901D01*
X-58589Y161056D01*
X-58641Y161212D01*
X-58689Y161370D01*
X-58734Y161529D01*
X-58775Y161688D01*
X-58812Y161849D01*
X-58845Y162011D01*
X-58875Y162173D01*
X-58900Y162336D01*
X-58922Y162499D01*
X-58940Y162663D01*
X-58953Y162828D01*
X-58963Y162992D01*
X-58969Y163157D01*
X-58971Y163322D01*
X-58272Y160295D02*
X-58243Y160218D01*
X-58211Y160142D01*
X-58175Y160068D01*
X-58136Y159996D01*
X-58094Y159926D01*
X-58048Y159858D01*
X-57999Y159792D01*
X-57946Y159728D01*
X-57891Y159667D01*
X-57833Y159609D01*
X-57773Y159554D01*
X-57709Y159501D01*
X-57643Y159452D01*
X-57575Y159406D01*
X-57505Y159363D01*
X-57433Y159323D01*
X-57359Y159287D01*
X-57284Y159255D01*
X-57207Y159226D01*
X-57129Y159201D01*
X-57049Y159180D01*
X-56969Y159162D01*
X-56888Y159149D01*
X-56806Y159139D01*
X-56724Y159133D01*
X-56642Y159131D01*
X-54779Y160994D02*
X-58505Y165650D01*
M02*
