G04 EAGLE Gerber RS-274X export*
G75*
%MOMM*%
%FSLAX34Y34*%
%LPD*%
%INSolderpaste Top*%
%IPPOS*%
%AMOC8*
5,1,8,0,0,1.08239X$1,22.5*%
G01*
%ADD10C,0.300000*%
%ADD11R,1.400000X1.400000*%
%ADD12R,1.650000X2.300000*%
%ADD13C,0.363000*%
%ADD14R,1.200000X1.300000*%
%ADD15R,1.600000X1.800000*%
%ADD16C,2.000000*%


D10*
X-23550Y57460D02*
X-31550Y57460D01*
X-31550Y64460D01*
X-23550Y64460D01*
X-23550Y57460D01*
X-23550Y60310D02*
X-31550Y60310D01*
X-31550Y63160D02*
X-23550Y63160D01*
X-14550Y57460D02*
X-6550Y57460D01*
X-14550Y57460D02*
X-14550Y64460D01*
X-6550Y64460D01*
X-6550Y57460D01*
X-6550Y60310D02*
X-14550Y60310D01*
X-14550Y63160D02*
X-6550Y63160D01*
X-6040Y92130D02*
X-6040Y100130D01*
X960Y100130D01*
X960Y92130D01*
X-6040Y92130D01*
X-6040Y94980D02*
X960Y94980D01*
X960Y97830D02*
X-6040Y97830D01*
X-6040Y83130D02*
X-6040Y75130D01*
X-6040Y83130D02*
X960Y83130D01*
X960Y75130D01*
X-6040Y75130D01*
X-6040Y77980D02*
X960Y77980D01*
X960Y80830D02*
X-6040Y80830D01*
X19250Y148900D02*
X27250Y148900D01*
X19250Y148900D02*
X19250Y155900D01*
X27250Y155900D01*
X27250Y148900D01*
X27250Y151750D02*
X19250Y151750D01*
X19250Y154600D02*
X27250Y154600D01*
X36250Y148900D02*
X44250Y148900D01*
X36250Y148900D02*
X36250Y155900D01*
X44250Y155900D01*
X44250Y148900D01*
X44250Y151750D02*
X36250Y151750D01*
X36250Y154600D02*
X44250Y154600D01*
D11*
X12750Y137160D03*
X50750Y137160D03*
D12*
X15250Y105410D03*
X48250Y105410D03*
D10*
X-51760Y82350D02*
X-51760Y74350D01*
X-51760Y82350D02*
X-44760Y82350D01*
X-44760Y74350D01*
X-51760Y74350D01*
X-51760Y77200D02*
X-44760Y77200D01*
X-44760Y80050D02*
X-51760Y80050D01*
X-51760Y65350D02*
X-51760Y57350D01*
X-51760Y65350D02*
X-44760Y65350D01*
X-44760Y57350D01*
X-51760Y57350D01*
X-51760Y60200D02*
X-44760Y60200D01*
X-44760Y63050D02*
X-51760Y63050D01*
X960Y106880D02*
X960Y114880D01*
X960Y106880D02*
X-6040Y106880D01*
X-6040Y114880D01*
X960Y114880D01*
X960Y109730D02*
X-6040Y109730D01*
X-6040Y112580D02*
X960Y112580D01*
X960Y123880D02*
X960Y131880D01*
X960Y123880D02*
X-6040Y123880D01*
X-6040Y131880D01*
X960Y131880D01*
X960Y126730D02*
X-6040Y126730D01*
X-6040Y129580D02*
X960Y129580D01*
X-17980Y127960D02*
X-25980Y127960D01*
X-17980Y127960D02*
X-17980Y120960D01*
X-25980Y120960D01*
X-25980Y127960D01*
X-25980Y123810D02*
X-17980Y123810D01*
X-17980Y126660D02*
X-25980Y126660D01*
X-34980Y127960D02*
X-42980Y127960D01*
X-34980Y127960D02*
X-34980Y120960D01*
X-42980Y120960D01*
X-42980Y127960D01*
X-42980Y123810D02*
X-34980Y123810D01*
X-34980Y126660D02*
X-42980Y126660D01*
X-25980Y155900D02*
X-17980Y155900D01*
X-17980Y148900D01*
X-25980Y148900D01*
X-25980Y155900D01*
X-25980Y151750D02*
X-17980Y151750D01*
X-17980Y154600D02*
X-25980Y154600D01*
X-34980Y155900D02*
X-42980Y155900D01*
X-34980Y155900D02*
X-34980Y148900D01*
X-42980Y148900D01*
X-42980Y155900D01*
X-42980Y151750D02*
X-34980Y151750D01*
X-34980Y154600D02*
X-42980Y154600D01*
X-25980Y141930D02*
X-17980Y141930D01*
X-17980Y134930D01*
X-25980Y134930D01*
X-25980Y141930D01*
X-25980Y137780D02*
X-17980Y137780D01*
X-17980Y140630D02*
X-25980Y140630D01*
X-34980Y141930D02*
X-42980Y141930D01*
X-34980Y141930D02*
X-34980Y134930D01*
X-42980Y134930D01*
X-42980Y141930D01*
X-42980Y137780D02*
X-34980Y137780D01*
X-34980Y140630D02*
X-42980Y140630D01*
X-51760Y114100D02*
X-51760Y106100D01*
X-51760Y114100D02*
X-44760Y114100D01*
X-44760Y106100D01*
X-51760Y106100D01*
X-51760Y108950D02*
X-44760Y108950D01*
X-44760Y111800D02*
X-51760Y111800D01*
X-51760Y97100D02*
X-51760Y89100D01*
X-51760Y97100D02*
X-44760Y97100D01*
X-44760Y89100D01*
X-51760Y89100D01*
X-51760Y91950D02*
X-44760Y91950D01*
X-44760Y94800D02*
X-51760Y94800D01*
D13*
X-35835Y74254D02*
X-33965Y74254D01*
X-35835Y74254D02*
X-35835Y82624D01*
X-33965Y82624D01*
X-33965Y74254D01*
X-33965Y77702D02*
X-35835Y77702D01*
X-35835Y81150D02*
X-33965Y81150D01*
X-26335Y74254D02*
X-24465Y74254D01*
X-26335Y74254D02*
X-26335Y82624D01*
X-24465Y82624D01*
X-24465Y74254D01*
X-24465Y77702D02*
X-26335Y77702D01*
X-26335Y81150D02*
X-24465Y81150D01*
X-16835Y74254D02*
X-14965Y74254D01*
X-16835Y74254D02*
X-16835Y82624D01*
X-14965Y82624D01*
X-14965Y74254D01*
X-14965Y77702D02*
X-16835Y77702D01*
X-16835Y81150D02*
X-14965Y81150D01*
X-14965Y100256D02*
X-16835Y100256D01*
X-16835Y108626D01*
X-14965Y108626D01*
X-14965Y100256D01*
X-14965Y103704D02*
X-16835Y103704D01*
X-16835Y107152D02*
X-14965Y107152D01*
X-33965Y100256D02*
X-35835Y100256D01*
X-35835Y108626D01*
X-33965Y108626D01*
X-33965Y100256D01*
X-33965Y103704D02*
X-35835Y103704D01*
X-35835Y107152D02*
X-33965Y107152D01*
X-26335Y108626D02*
X-24465Y108626D01*
X-24465Y100256D01*
X-26335Y100256D01*
X-26335Y108626D01*
X-26335Y103704D02*
X-24465Y103704D01*
X-24465Y107152D02*
X-26335Y107152D01*
D10*
X46410Y58110D02*
X54410Y58110D01*
X54410Y51110D01*
X46410Y51110D01*
X46410Y58110D01*
X46410Y53960D02*
X54410Y53960D01*
X54410Y56810D02*
X46410Y56810D01*
X37410Y58110D02*
X29410Y58110D01*
X37410Y58110D02*
X37410Y51110D01*
X29410Y51110D01*
X29410Y58110D01*
X29410Y53960D02*
X37410Y53960D01*
X37410Y56810D02*
X29410Y56810D01*
D11*
X13970Y74880D03*
X13970Y36880D03*
D14*
X50800Y71120D03*
X30480Y71120D03*
D15*
X-43210Y39370D03*
X-15210Y39370D03*
D16*
X38100Y15970D02*
X38100Y11970D01*
X12700Y11970D02*
X12700Y15970D01*
X-12700Y15970D02*
X-12700Y11970D01*
X-38100Y11970D02*
X-38100Y15970D01*
M02*
